<svg version="1.1" id="Layer_1" xmlns="http://www.w3.org/2000/svg" xmlns:xlink="http://www.w3.org/1999/xlink" x="0px" y="0px"
	 width="100%" viewBox="0 0 1024 421" enable-background="new 0 0 1024 421" xml:space="preserve">
<path fill="#FEFEFF" opacity="1.000000" stroke="none" 
	d="
M702.000000,422.000000 
	C468.000000,422.000000 234.500000,422.000000 1.000000,422.000000 
	C1.000000,281.666656 1.000000,141.333328 1.000000,1.000000 
	C342.333344,1.000000 683.666687,1.000000 1025.000000,1.000000 
	C1025.000000,141.333328 1025.000000,281.666656 1025.000000,422.000000 
	C917.500000,422.000000 810.000000,422.000000 702.000000,422.000000 
M560.922302,260.660858 
	C562.686768,261.599701 564.661255,263.506958 566.151978,263.183716 
	C567.440247,262.904358 568.649109,260.170441 568.958435,258.361755 
	C569.108948,257.481567 567.220947,255.455780 566.087402,255.316269 
	C563.609070,255.011246 561.029602,255.588455 560.289551,259.594330 
	C560.008789,259.439697 559.536804,259.338867 559.475891,259.122406 
	C558.583435,255.948273 556.243225,255.260193 553.722473,256.505737 
	C552.430176,257.144226 550.878479,259.379730 551.133545,260.513275 
	C551.485596,262.077789 553.821777,264.605591 554.619080,264.371704 
	C556.373596,263.857086 557.657166,261.823456 559.219421,260.512817 
	C559.671387,260.133636 560.416992,260.104431 560.922302,260.660858 
M113.005669,205.807556 
	C114.512192,206.330032 116.018723,206.852509 118.204689,207.610626 
	C117.550621,208.942001 116.735779,210.600662 115.717705,212.673019 
	C116.924393,212.800308 117.944305,212.907898 118.909523,213.759354 
	C116.903671,218.598999 118.968788,221.192490 122.322060,221.910889 
	C123.147881,225.188339 123.776520,227.683228 124.801399,230.705933 
	C126.062462,230.816940 127.323524,230.927933 128.584595,231.038940 
	C128.686584,230.660095 128.788574,230.281250 128.890564,229.902390 
	C127.866882,229.391983 126.843193,228.881577 125.335121,227.807465 
	C126.002640,226.577866 126.696503,224.312332 127.332344,224.328506 
	C128.776855,224.365234 130.192856,225.523773 132.163345,226.472137 
	C132.482254,225.887573 132.801178,225.303009 133.060104,223.925980 
	C131.334518,222.681183 129.608917,221.436386 127.808044,220.137283 
	C130.670441,215.109268 129.872879,213.215591 123.710800,211.828445 
	C123.121460,211.695770 122.617302,211.184677 122.399788,210.193298 
	C128.571655,207.432404 123.055435,204.443954 122.956635,201.445724 
	C120.722694,202.054443 118.877831,202.557129 116.301659,202.586792 
	C116.750504,201.946167 117.224297,201.321396 117.643158,200.661743 
	C118.615692,199.130188 119.561722,197.581802 120.518509,196.040253 
	C118.718254,195.746750 116.905449,195.513306 115.121765,195.140518 
	C113.726242,194.848846 112.366829,194.384445 111.721375,193.931030 
	C113.796043,192.966949 115.870720,192.002884 117.945389,191.038803 
	C118.000084,190.499344 118.054779,189.959900 118.109474,189.420441 
	C115.822090,188.821548 113.534706,188.222656 111.218246,187.616150 
	C112.499260,185.660492 117.040161,184.906219 113.410492,181.126389 
	C110.284103,182.532257 107.160431,183.936890 104.478386,185.142944 
	C105.476234,187.061691 106.309151,188.663300 107.506737,190.966110 
	C107.766129,190.991913 109.086868,191.123352 110.696411,191.283524 
	C108.598900,192.917526 108.326256,193.647919 109.722633,195.069107 
	C109.814949,196.002975 109.736923,197.689789 110.025726,197.755127 
	C113.179070,198.468491 113.447662,200.086761 112.116402,202.703079 
	C111.893707,203.140717 112.874924,204.190964 113.005669,205.807556 
M809.685852,255.881653 
	C811.131775,267.362976 817.460266,275.031677 828.184448,278.990021 
	C846.870911,285.887268 870.307495,275.469696 878.245117,256.620728 
	C880.214539,251.944061 882.950195,248.741150 888.907227,247.840973 
	C893.965942,247.760666 899.385681,249.283218 902.078674,245.791443 
	C907.464417,246.601883 911.649353,247.349960 915.865234,247.820984 
	C918.335144,248.096970 920.873474,248.141083 923.347229,247.916901 
	C927.390503,247.550491 930.589233,248.466446 933.687134,251.470566 
	C937.907288,255.562927 944.117615,253.121201 944.795288,247.317169 
	C945.075806,244.914413 944.747070,242.310135 944.108582,239.956726 
	C942.627930,234.499466 938.705505,231.313080 934.365906,231.461807 
	C929.079590,231.642975 928.016052,235.391953 927.684875,239.413757 
	C922.134277,239.413757 916.886963,239.413757 911.587646,239.413757 
	C913.940002,237.829269 916.212524,236.822144 917.575806,235.096649 
	C918.053833,234.491638 916.651184,231.757263 915.490662,230.630234 
	C912.776611,227.994614 909.827332,225.535675 906.681091,223.445023 
	C905.519531,222.673187 903.098083,222.455902 902.010803,223.159485 
	C898.417236,225.484894 895.045166,228.207352 891.861511,231.080383 
	C890.816162,232.023758 890.037048,233.960388 890.202637,235.312195 
	C890.321533,236.282349 892.127625,237.198761 893.341370,237.831497 
	C894.246216,238.303162 895.407532,238.282715 896.454651,238.481430 
	C896.471069,238.793411 896.487549,239.105377 896.503967,239.417343 
	C893.674927,239.821899 890.845825,240.226456 887.186707,240.477875 
	C884.460022,239.445572 881.795166,238.168060 878.986816,237.459366 
	C876.784424,236.903564 873.583618,236.084305 872.327087,237.150543 
	C870.988403,238.286530 870.327271,242.211899 871.280701,243.671951 
	C873.799438,247.529190 872.196594,250.527634 870.813904,253.904129 
	C867.181091,262.775238 860.214417,268.021393 851.951660,272.209045 
	C839.071899,278.736603 814.812317,272.878937 810.786560,254.072769 
	C810.612000,252.871674 810.437500,251.670593 810.289551,250.652634 
	C820.078613,248.475021 829.281067,245.127823 838.603577,244.750992 
	C846.564148,244.429230 848.125549,239.483200 850.392334,234.405182 
	C852.186523,230.385849 850.040894,223.962463 846.665527,221.260132 
	C843.867615,219.020111 838.523987,219.266113 836.634216,221.721878 
	C834.153137,224.946045 834.938293,227.103867 839.561279,229.969711 
	C841.713745,231.304092 843.813843,232.723022 846.682068,234.587509 
	C844.740479,235.553040 843.954529,236.167755 843.080688,236.342285 
	C837.227051,237.511307 831.374939,238.711716 825.483582,239.661545 
	C817.632385,240.927353 809.747437,242.900253 801.874451,242.912216 
	C787.901062,242.933426 779.977173,232.016388 783.509705,218.464005 
	C784.624390,214.187439 786.960083,210.227188 788.758789,206.131775 
	C789.486328,204.475342 790.272583,202.844681 791.032104,201.202271 
	C790.586670,200.973648 790.141174,200.745026 789.695740,200.516403 
	C786.431152,206.247040 782.635437,211.745422 780.007874,217.754593 
	C773.715393,232.145172 781.561035,246.685852 796.891968,249.779404 
	C799.167786,250.238632 801.552551,250.702759 803.827148,250.498810 
	C807.449402,250.174011 809.461792,251.381943 809.685852,255.881653 
M685.109070,248.880630 
	C685.109070,250.844086 685.109070,252.807556 685.109070,253.278992 
	C681.816101,254.895035 679.165649,255.778732 677.158875,257.439972 
	C676.572815,257.925110 677.824097,262.077606 678.227234,262.076630 
	C680.996277,262.069855 683.763794,261.406372 686.815308,260.907959 
	C691.577698,271.460541 696.816895,274.639832 711.429077,270.772003 
	C719.185181,268.718994 723.468811,262.359619 727.040588,255.557632 
	C731.267883,247.507370 733.419312,246.552094 742.402771,248.283234 
	C743.541870,248.502731 744.656494,249.128723 745.773560,249.106964 
	C746.965881,249.083740 748.550659,248.891586 749.267639,248.123306 
	C753.463562,243.626862 752.219299,231.911377 747.048767,228.619293 
	C745.672607,227.743103 743.067017,227.689072 741.591919,228.412186 
	C740.308838,229.041153 739.010498,231.414642 739.206970,232.807404 
	C739.421143,234.326553 741.251038,235.705933 742.561829,236.951340 
	C743.433594,237.779541 744.629944,238.266068 745.681030,238.905533 
	C741.856140,239.978470 738.459473,239.801758 735.090637,240.032135 
	C732.182861,240.230957 730.901733,238.908600 730.138123,236.324524 
	C729.298096,233.481522 728.524109,230.514023 727.059082,227.984299 
	C724.635132,223.798767 719.394653,222.990677 716.535217,226.463318 
	C713.113403,230.618896 710.766357,235.525436 711.957397,241.146988 
	C713.116699,246.618576 717.837646,247.299088 722.340027,248.073257 
	C722.567871,248.112427 722.729675,248.535477 723.039551,248.928696 
	C721.611023,257.106110 716.875671,262.626984 709.046204,265.445129 
	C701.920898,268.009827 694.183167,266.094330 691.350464,260.571381 
	C689.350159,256.671417 688.430725,252.217072 687.810547,248.015747 
	C689.254517,248.280182 690.888062,248.198166 692.110657,248.867233 
	C698.445679,252.334106 700.941101,251.685852 702.075562,244.443893 
	C703.141785,237.637360 703.024719,230.579544 702.790833,223.653793 
	C702.556458,216.712540 701.659363,209.782303 700.800598,202.878586 
	C700.405457,199.701706 700.246765,195.757187 695.494812,195.994278 
	C691.969910,196.170151 689.378052,200.248383 690.058777,204.193893 
	C690.307800,205.637375 690.983765,207.020950 691.563049,208.390427 
	C692.403198,210.377075 693.386658,212.303558 694.214050,214.295151 
	C697.795959,222.917328 697.196655,231.748016 695.994934,239.940247 
	C691.807068,239.940247 687.866272,240.806000 684.602173,239.690948 
	C681.486877,238.626740 679.076477,235.499023 675.796692,232.821655 
	C675.407776,233.442291 674.953552,234.140472 674.525635,234.854492 
	C671.310364,240.219955 663.925354,242.418610 659.555420,238.297058 
	C655.379150,234.358185 652.621399,234.075592 649.811096,238.999878 
	C648.030090,237.442810 646.574707,236.170395 644.992126,234.786804 
	C643.413147,236.525803 642.149109,237.917953 640.922668,239.268616 
	C639.474121,237.329422 638.242126,235.680145 636.460999,233.295654 
	C633.899292,238.490463 630.293884,239.877350 625.320251,240.206436 
	C619.386108,240.599121 617.775146,235.694397 613.823914,232.264847 
	C613.166687,233.371933 612.740173,234.082489 612.321106,234.797394 
	C609.028198,240.414597 599.315491,242.294159 594.519409,237.960663 
	C592.063110,235.741287 589.065308,234.562592 587.129456,236.843338 
	C585.657471,238.577484 586.151062,242.081696 586.009277,244.810791 
	C585.897095,246.970657 586.800110,249.377045 586.134216,251.283356 
	C581.234802,265.307709 570.589722,272.593323 556.425110,274.513702 
	C547.757446,275.688782 539.873169,272.565857 533.388794,267.354370 
	C536.674988,262.951782 539.951477,259.162933 542.544067,254.952957 
	C546.796204,248.047943 549.467773,246.648209 557.683472,248.275482 
	C558.822998,248.501205 560.005371,249.248535 561.044861,249.063461 
	C562.487183,248.806671 564.324219,248.268021 565.100586,247.201187 
	C568.500671,242.528809 567.363220,232.589325 562.883179,229.251633 
	C561.430969,228.169708 558.721741,227.874146 556.956787,228.417709 
	C555.702454,228.804001 554.215820,231.303040 554.382141,232.670837 
	C554.567932,234.199020 556.415894,235.602798 557.708374,236.892441 
	C558.619751,237.801712 559.811096,238.430328 560.877441,239.184235 
	C560.648438,239.626236 560.419373,240.068222 560.190369,240.510223 
	C554.078796,239.204086 547.483704,241.759109 541.657349,237.028275 
	C540.231445,235.870499 536.855713,237.114075 534.376465,237.253571 
	C534.832031,239.607758 535.343323,241.953003 535.723450,244.319321 
	C535.970764,245.858887 536.720947,247.894302 536.045044,248.902283 
	C533.577576,252.581818 530.605896,255.923157 527.584961,259.690277 
	C526.327148,256.712616 525.306580,254.296768 524.286072,251.880920 
	C525.759155,262.814819 524.859253,264.433594 514.483032,268.374207 
	C513.398438,268.786133 512.296997,269.170349 511.177612,269.471558 
	C497.202759,273.231567 483.815948,266.728271 479.514771,254.028763 
	C476.421448,244.895599 479.233337,236.701385 483.724670,228.802338 
	C484.616394,227.234055 485.402618,225.605774 486.237488,224.005173 
	C471.771423,237.879135 468.822601,251.282761 476.857483,263.280457 
	C481.496765,270.207733 488.029602,274.500641 495.871704,277.027649 
	C508.494873,281.095245 519.327515,276.825439 528.288330,270.140228 
	C533.544067,273.476715 537.620422,277.196503 542.413879,278.910583 
	C562.647156,286.145691 585.642822,275.467072 593.613220,255.152740 
	C595.726379,249.767105 598.437988,247.479218 604.222717,247.860077 
	C606.984314,248.041870 609.855225,246.563461 613.376343,245.656891 
	C617.264404,249.637711 628.567017,249.727798 636.924316,244.749527 
	C639.469299,247.935455 642.290039,249.973938 645.281433,244.812515 
	C649.048401,248.472885 652.610352,250.084686 655.304932,244.154434 
	C662.166016,249.372742 669.101257,249.551849 674.784912,244.850128 
	C677.639709,248.009628 677.639709,248.009628 685.109070,248.880630 
M429.499573,23.997208 
	C388.863403,23.716927 348.227295,23.422058 307.590942,23.170916 
	C300.922852,23.129704 300.192657,24.343664 302.945282,30.411352 
	C310.700928,47.507488 318.544189,64.564606 326.162201,81.721794 
	C327.583771,84.923500 329.375031,86.246643 332.920807,86.236290 
	C347.074036,86.194977 361.227783,86.486771 375.381775,86.530312 
	C395.707153,86.592834 416.032928,86.527145 436.358459,86.568329 
	C439.182373,86.574051 442.035461,86.672539 444.824188,87.077995 
	C457.096802,88.862320 465.598999,98.053139 464.753265,108.726410 
	C463.708405,121.912773 455.547455,129.928162 441.834686,129.590744 
	C420.688873,129.070465 399.520813,129.446152 378.362213,129.458908 
	C372.793488,129.462265 372.022766,130.655090 374.229919,135.523514 
	C381.501312,151.562164 388.925262,167.535477 395.906525,183.699753 
	C398.243927,189.111771 401.610626,191.477661 407.398193,191.030396 
	C422.491577,189.863968 437.616028,189.055603 452.687164,187.662125 
	C460.763092,186.915421 469.192688,186.463608 476.688477,183.744476 
	C490.193451,178.845505 501.408478,169.933640 510.232513,158.560196 
	C537.953186,122.830597 532.237244,60.595547 482.685883,34.014351 
	C466.251282,25.198233 448.753998,22.856871 429.499573,23.997208 
M311.702942,234.827057 
	C318.021240,248.546005 324.258545,262.303680 330.774475,275.928101 
	C331.480133,277.403534 333.754181,278.949890 335.376465,279.035919 
	C348.331085,279.722839 361.301453,280.172302 374.272125,280.475800 
	C382.816986,280.675751 391.370300,280.513580 400.233032,280.513580 
	C399.888123,279.283356 399.723511,278.136536 399.260742,277.126282 
	C382.186279,239.851120 364.852783,202.692612 348.045959,165.297379 
	C328.171844,121.077301 308.762115,76.648560 289.081970,32.340973 
	C288.322021,30.630058 286.844055,29.238081 285.700653,27.697483 
	C284.516418,29.131651 282.909271,30.386055 282.211792,32.027096 
	C272.603149,54.634533 263.152130,77.308899 253.569626,99.927536 
	C252.180344,103.206810 252.192642,105.975014 253.761856,109.356255 
	C273.049255,150.915619 292.151825,192.560730 311.702942,234.827057 
M245.935623,215.412170 
	C246.367645,214.332916 246.639771,213.150711 247.257568,212.191040 
	C251.359787,205.818848 250.366318,199.995743 247.271194,193.163101 
	C222.876617,139.310867 198.926071,85.257553 174.757507,31.302568 
	C174.009018,29.631592 172.376740,28.356491 171.156509,26.896830 
	C169.883865,28.451275 168.159851,29.814383 167.407425,31.589344 
	C158.528503,52.534855 149.993988,73.629051 140.878021,94.469429 
	C138.699631,99.449547 138.927505,103.393753 141.102264,108.116814 
	C164.232361,158.349854 187.211868,208.652222 210.232742,258.935547 
	C212.900101,264.761749 215.567078,270.588135 218.899506,277.867676 
	C228.166595,256.445374 236.891434,236.276535 245.935623,215.412170 
M112.317047,212.132904 
	C109.056282,205.005600 105.795525,197.878296 102.009964,189.603912 
	C100.351883,192.185776 99.494507,193.189850 98.994476,194.348160 
	C88.017273,219.776581 77.070587,245.218185 66.141418,270.667297 
	C63.649891,276.468964 64.524857,277.832397 70.713348,277.837189 
	C92.685188,277.854218 114.657066,277.852905 136.628876,277.824463 
	C138.181290,277.822449 139.733322,277.543671 142.215683,277.303650 
	C132.118713,255.233032 122.409348,234.009598 112.317047,212.132904 
M94.463715,346.930847 
	C92.391632,340.611877 90.395210,334.266144 88.179367,327.997986 
	C87.768982,326.837067 86.509636,325.170776 85.580544,325.129700 
	C79.665237,324.868042 73.732681,324.996582 67.841125,324.996582 
	C67.841125,346.490143 67.841125,367.368347 67.841125,388.233032 
	C72.682640,388.233032 77.106674,388.233032 81.963593,388.233032 
	C81.963593,377.139526 81.963593,366.375397 81.963593,355.611237 
	C85.766685,364.786652 89.465569,373.887756 91.803871,383.325928 
	C93.300262,389.365845 97.039917,388.270996 101.104858,388.676971 
	C105.514732,389.117432 106.199860,386.487885 107.187027,383.283539 
	C110.090408,373.859344 113.241730,364.511536 116.295975,355.133820 
	C116.597198,355.196777 116.898422,355.259705 117.199646,355.322662 
	C117.199646,366.194946 117.199646,377.067261 117.199646,388.165344 
	C122.226509,388.165344 126.921860,388.165344 131.611038,388.165344 
	C131.611038,366.992493 131.611038,346.226685 131.611038,324.987335 
	C125.584351,324.987335 119.788742,324.833160 114.015686,325.125183 
	C112.938774,325.179688 111.445473,326.845734 111.012039,328.074188 
	C109.134079,333.396942 107.578270,338.833344 105.904533,344.228180 
	C103.964279,350.482025 102.023193,356.735596 99.713768,364.177368 
	C97.806229,357.807556 96.288612,352.739838 94.463715,346.930847 
M211.582245,367.505096 
	C212.539307,366.531311 213.400833,364.866577 214.472061,364.718475 
	C217.247101,364.334778 220.114502,364.620422 222.945038,364.636627 
	C227.900620,364.665039 230.694504,367.116333 231.240433,372.061340 
	C231.714020,376.351044 231.987305,380.674500 232.732407,384.915680 
	C232.964401,386.236298 234.371124,388.296265 235.369720,388.375092 
	C240.041626,388.743744 244.758789,388.538788 249.905685,388.538788 
	C243.690842,378.760132 249.776703,366.090027 239.657135,358.130310 
	C240.980255,357.025513 242.176590,356.314301 242.995102,355.298584 
	C250.926163,345.456482 246.679016,328.479156 234.750626,326.494019 
	C222.320450,324.425354 209.442551,325.046997 196.706314,324.490021 
	C196.706314,346.484619 196.706314,367.231995 196.706314,388.229279 
	C201.695435,388.229279 206.401352,388.229279 211.575653,388.229279 
	C211.575653,381.430878 211.575653,374.971405 211.582245,367.505096 
M884.426270,388.964294 
	C886.193298,388.964294 887.960327,388.964294 890.044128,388.964294 
	C890.044128,376.705200 890.044128,365.007477 890.044128,351.934235 
	C896.783813,363.899017 902.807373,374.702698 908.981506,385.419647 
	C909.792297,386.827087 911.279419,388.651886 912.616089,388.798431 
	C916.673462,389.243256 920.810669,388.959473 924.819458,388.959473 
	C924.819458,367.632385 924.819458,346.888733 924.819458,326.167297 
	C920.112671,326.167297 915.710205,326.167297 910.924072,326.167297 
	C910.924072,338.139709 910.924072,349.832031 910.924072,362.833038 
	C904.199524,350.865936 898.181763,340.040192 892.003906,329.306610 
	C891.206909,327.921967 889.668701,326.185791 888.321228,326.041992 
	C884.276917,325.610352 880.157043,325.886566 876.203857,325.886566 
	C876.203857,347.285095 876.203857,368.017029 876.203857,388.964294 
	C878.839233,388.964294 881.153625,388.964294 884.426270,388.964294 
M255.262665,373.052765 
	C261.952789,385.661835 271.970398,391.261078 285.287292,389.834747 
	C297.034912,388.576508 306.493073,380.649384 309.433289,368.509460 
	C310.739563,363.116089 311.141266,357.284119 310.740723,351.738861 
	C309.635345,336.437012 298.773804,324.741089 285.648621,323.874481 
	C268.954163,322.772247 256.828674,331.109863 253.315567,346.353882 
	C251.292953,355.130402 251.679703,363.846588 255.262665,373.052765 
M468.552734,352.984131 
	C468.739929,357.450104 468.476929,361.990143 469.197540,366.368317 
	C471.496094,380.333923 481.573486,389.490875 495.138245,390.425690 
	C508.361908,391.337067 519.376221,383.833038 523.464172,370.710510 
	C526.355530,361.429138 526.355957,351.997925 523.025635,342.796600 
	C519.705017,333.621948 513.486084,327.209045 503.767853,325.005707 
	C485.658600,320.899933 471.049927,332.271667 468.552734,352.984131 
M788.094360,383.220978 
	C788.072021,387.853394 790.296570,389.578064 794.912231,389.033569 
	C798.120605,388.655090 801.409668,388.960693 805.005432,388.960693 
	C799.224548,379.325684 804.977173,366.849121 795.603455,358.875977 
	C802.347961,352.872650 803.369080,345.586884 801.260925,337.689728 
	C799.546753,331.268250 794.845154,326.899048 788.561462,326.488586 
	C777.041565,325.736053 765.437317,326.274139 753.893127,326.274139 
	C753.893127,347.296143 753.893127,368.028015 753.893127,388.761353 
	C758.664673,388.761353 763.110657,388.761353 767.965942,388.761353 
	C767.965942,380.831238 767.965942,373.086029 767.965942,365.723145 
	C768.502563,365.248108 768.618225,365.053894 768.746216,365.045410 
	C785.817749,363.916931 787.262695,365.212799 788.094360,383.220978 
M336.587280,374.211700 
	C327.838257,368.536285 328.028229,348.882233 333.813477,342.159149 
	C335.268646,340.468079 337.232727,338.899902 339.284546,338.094025 
	C346.574310,335.230865 352.022675,338.568573 355.624695,347.698547 
	C360.384125,347.698547 365.122955,347.698547 369.870575,347.698547 
	C369.228821,336.606934 362.558777,327.949921 352.493103,324.857330 
	C340.844391,321.278351 328.475708,325.013580 321.551239,334.237579 
	C314.586609,343.515106 313.370239,354.100250 315.237091,365.081635 
	C318.363922,383.474823 333.892090,393.531799 351.516907,388.952393 
	C362.926636,385.987885 371.726715,373.131653 369.440796,362.759399 
	C364.847351,362.759399 360.253876,362.759399 355.747528,362.759399 
	C352.549255,375.381836 347.271423,378.704559 336.587280,374.211700 
M178.936859,345.478333 
	C177.650497,341.881317 176.359802,338.285889 175.078629,334.687012 
	C171.602692,324.923065 171.603104,325.033417 161.175888,324.921814 
	C158.118073,324.889099 156.503555,325.547760 155.398468,328.741425 
	C148.933350,347.425537 142.181152,366.010223 135.554657,384.638733 
	C135.147797,385.782501 134.987350,387.013916 134.630142,388.559937 
	C137.829636,388.559937 140.540665,388.207550 143.123337,388.633514 
	C148.447464,389.511719 151.269501,387.381897 151.936279,382.188446 
	C152.711212,376.152740 155.937378,374.389221 162.006165,374.690308 
	C173.374115,375.254272 173.337021,374.874268 177.318405,385.293640 
	C177.807739,386.574310 179.229630,388.310638 180.336014,388.400604 
	C184.739914,388.758606 189.190033,388.548035 194.262390,388.548035 
	C189.063416,373.979095 184.111938,360.103790 178.936859,345.478333 
M474.499817,412.537567 
	C535.973328,412.537598 597.446777,412.537842 658.920288,412.536438 
	C660.419556,412.536407 662.049438,412.880463 663.378906,412.400543 
	C664.557800,411.975067 665.402710,410.624725 666.395081,409.682648 
	C666.066345,409.275879 665.737549,408.869110 665.408813,408.462341 
	C663.419678,408.462341 661.430603,408.462006 659.441528,408.462402 
	C536.161621,408.488129 412.881683,408.503510 289.601868,408.621002 
	C287.361450,408.623138 285.122223,409.843994 282.882446,410.496246 
	C285.114685,411.174377 287.345856,412.440918 289.579285,412.444885 
	C350.885986,412.554291 412.192902,412.535034 474.499817,412.537567 
M440.191528,325.946869 
	C430.791351,325.946869 421.391205,325.946869 412.210938,325.946869 
	C412.210938,347.337524 412.210938,368.048035 412.210938,388.712585 
	C416.966370,388.712585 421.389587,388.712585 426.247620,388.712585 
	C426.247620,381.404572 426.247620,374.339172 426.247620,366.963074 
	C430.656494,366.963074 434.624542,366.984680 438.592285,366.958984 
	C450.121094,366.884399 457.602051,360.080536 458.419128,348.950623 
	C459.377167,335.900757 453.177795,327.687012 440.191528,325.946869 
M817.786072,373.493896 
	C817.786072,378.595154 817.786072,383.696411 817.786072,388.806702 
	C832.921570,388.806702 847.518250,388.806702 862.225769,388.806702 
	C862.225769,384.175995 862.225769,379.774048 862.225769,374.852295 
	C852.161194,374.852295 842.440613,374.852295 832.943115,374.852295 
	C832.943115,370.585663 832.943115,366.850739 832.943115,362.749756 
	C841.895081,362.749756 850.484558,362.749756 859.238525,362.749756 
	C859.238525,358.300171 859.238525,354.246887 859.238525,349.715454 
	C850.179321,349.715454 841.449646,349.715454 832.906067,349.715454 
	C832.906067,346.131958 832.906067,343.041107 832.906067,339.387238 
	C842.766113,339.387238 852.306702,339.387238 861.763916,339.387238 
	C861.763916,334.550842 861.763916,330.296783 861.763916,325.980652 
	C847.064087,325.980652 832.632080,325.980652 817.786194,325.980652 
	C817.786194,341.613434 817.786194,357.054810 817.786072,373.493896 
M949.556396,389.039276 
	C961.316406,389.039276 973.076477,389.039276 984.637817,389.039276 
	C984.637817,384.024933 984.637817,379.638519 984.637817,374.959106 
	C974.634399,374.959106 965.029785,374.959106 955.386963,374.959106 
	C955.386963,370.759155 955.386963,366.879272 955.386963,362.715210 
	C964.350708,362.715210 972.967651,362.715210 981.769531,362.715210 
	C981.769531,358.367279 981.769531,354.312836 981.769531,349.829529 
	C972.764282,349.829529 964.021606,349.829529 955.406372,349.829529 
	C955.406372,346.172058 955.406372,342.957489 955.406372,339.382324 
	C965.213989,339.382324 974.657410,339.382324 984.339966,339.382324 
	C984.339966,334.762665 984.339966,330.514008 984.339966,326.019257 
	C969.749756,326.019257 955.330322,326.019257 940.757141,326.019257 
	C940.757141,347.079010 940.757141,367.944824 940.757141,389.039276 
	C943.594788,389.039276 946.085754,389.039276 949.556396,389.039276 
M657.548889,362.918854 
	C660.550476,363.884979 663.787354,364.434723 666.476196,365.954193 
	C668.483032,367.088196 671.439209,370.037689 671.049255,371.185913 
	C670.250671,373.537445 667.806580,376.284485 665.473694,376.986389 
	C657.666016,379.335388 653.772888,376.253784 650.620178,366.317566 
	C646.172180,366.317566 641.724182,366.317566 637.305054,366.317566 
	C636.038147,375.812531 640.516541,384.172333 648.989136,388.002625 
	C655.939331,391.144653 663.241211,391.277374 670.509460,389.552887 
	C679.944519,387.314331 685.624023,380.442566 686.120728,371.266937 
	C686.656372,361.372620 682.634827,355.547852 672.424377,351.890472 
	C667.432007,350.102264 662.205688,348.933136 657.303711,346.945129 
	C655.549927,346.233887 653.064697,343.608826 653.344604,342.438812 
	C653.807617,340.503326 655.951416,338.222076 657.900024,337.529144 
	C663.896790,335.396576 668.059021,338.446869 670.544678,345.870361 
	C675.038879,345.870361 679.441345,345.870361 683.977478,345.870361 
	C684.113281,339.242462 682.358643,333.670776 677.556763,329.431000 
	C669.276367,322.119934 653.018005,322.499268 644.658325,329.721130 
	C636.106995,337.108490 636.095520,355.772095 649.780212,360.155151 
	C652.146301,360.912994 654.451111,361.862122 657.548889,362.918854 
M612.562317,371.605591 
	C613.667664,367.379242 614.075745,362.798340 616.010254,358.993591 
	C621.618835,347.962677 627.840393,337.243408 634.157043,325.793335 
	C629.351746,325.793335 625.205811,326.001068 621.093018,325.721313 
	C618.282471,325.530182 616.978943,326.670685 615.791687,329.043030 
	C612.503601,335.613159 608.946472,342.048645 605.403992,348.709686 
	C601.811646,341.880981 598.416992,335.232819 594.793152,328.711975 
	C594.108459,327.479980 592.563477,326.011475 591.328125,325.926788 
	C586.583557,325.601685 581.803467,325.795105 576.445068,325.795105 
	C580.366272,332.882172 583.392944,339.611969 587.531494,345.569336 
	C596.040222,357.817474 599.985962,371.001465 597.997375,385.864105 
	C597.873413,386.790192 598.071106,387.759308 598.121460,388.754517 
	C603.039551,388.754517 607.605774,388.754517 612.562256,388.754517 
	C612.562256,383.186676 612.562256,377.881775 612.562317,371.605591 
M719.500427,325.774963 
	C711.065552,325.774963 702.630737,325.774963 694.191528,325.774963 
	C694.191528,330.593842 694.191528,334.866699 694.191528,339.767151 
	C699.800049,339.767151 705.195251,339.767151 710.876099,339.767151 
	C710.876099,356.518005 710.876099,372.638458 710.876099,388.863098 
	C715.817688,388.863098 720.441162,388.863098 725.630310,388.863098 
	C725.630310,372.471497 725.630310,356.244659 725.630310,339.512115 
	C731.412720,339.512115 736.646057,339.512115 741.855225,339.512115 
	C741.855225,334.608582 741.855225,330.232117 741.855225,325.775085 
	C734.490234,325.775085 727.495300,325.775085 719.500427,325.774963 
M538.146973,327.759460 
	C538.146973,348.010010 538.146973,368.260559 538.146973,388.763550 
	C552.251038,388.763550 565.949646,388.763550 579.697021,388.763550 
	C579.697021,384.177002 579.697021,379.801147 579.697021,374.964783 
	C570.669678,374.964783 561.955688,374.964783 552.776855,374.964783 
	C552.776855,358.303528 552.776855,342.105560 552.776855,325.295380 
	C547.568909,325.835602 542.893982,326.320557 538.146973,327.759460 
M845.353638,317.067688 
	C842.764954,314.242340 842.669800,308.852570 836.856812,309.332520 
	C832.912048,309.658203 828.918640,309.394714 824.947021,309.394714 
	C831.971436,315.935425 836.295166,326.706879 848.608948,322.314423 
	C847.653748,320.737885 846.721191,319.198700 845.353638,317.067688 
M617.061218,213.255417 
	C616.270569,215.272202 615.105164,217.259644 614.943420,219.325699 
	C614.901062,219.866135 618.441895,221.610260 619.510803,221.093277 
	C621.024841,220.360901 622.924500,217.687805 622.555725,216.493927 
	C622.094910,215.001968 619.498413,214.169693 617.061218,213.255417 
M841.036743,253.577148 
	C837.957397,252.989548 835.606079,254.061722 835.333374,257.245850 
	C835.214539,258.633362 836.490417,261.106903 837.583618,261.398621 
	C839.113831,261.806976 841.603638,261.164825 842.718323,260.027130 
	C844.708313,257.995819 844.325684,255.544846 841.036743,253.577148 
M753.292542,256.433807 
	C752.592224,256.017517 751.922241,255.312897 751.186279,255.235504 
	C748.214661,254.923035 745.539612,255.896454 745.663513,259.201996 
	C745.722412,260.773499 747.638245,263.328522 749.040527,263.575134 
	C751.874329,264.073517 754.081055,262.394287 754.024475,258.999695 
	C754.013672,258.349243 753.864075,257.701141 753.292542,256.433807 
M604.577454,214.678940 
	C604.956116,216.729568 604.932617,219.010025 605.909180,220.718948 
	C606.305725,221.412720 609.431702,221.496246 610.323181,220.718979 
	C611.456543,219.730774 612.331421,217.415482 612.002380,215.972183 
	C610.983765,211.503464 607.951538,212.664581 604.577454,214.678940 
M672.806519,255.225449 
	C671.351562,255.234390 669.503235,254.696518 668.540344,255.389313 
	C667.308655,256.275574 665.969055,258.295837 666.188660,259.565887 
	C666.423706,260.925629 668.293701,262.723877 669.679016,262.954224 
	C670.981262,263.170807 673.271545,261.927582 673.863220,260.711609 
	C674.491455,259.420624 673.632568,257.405945 672.806519,255.225449 
M902.853882,214.968948 
	C904.665527,213.703308 906.728455,212.654175 908.126221,211.031921 
	C908.514404,210.581467 907.063782,207.388092 906.222778,207.280441 
	C904.518311,207.062225 901.454529,207.696503 901.123962,208.697159 
	C900.566101,210.385696 901.698242,212.632599 902.853882,214.968948 
M516.871643,225.202042 
	C517.509094,226.714020 517.792786,229.047119 518.879822,229.515411 
	C520.052307,230.020493 522.491821,229.221268 523.402954,228.156311 
	C524.081787,227.362930 523.207520,225.240662 523.024902,223.710205 
	C521.024170,223.984253 519.023438,224.258301 516.871643,225.202042 
M131.500000,228.000000 
	C131.366669,228.199997 131.233337,228.400009 131.100006,228.600006 
	C131.400009,228.566666 131.699997,228.533325 131.500000,228.000000 
z"/>
<path fill="#21429C" opacity="1.000000" stroke="none" 
	d="
M429.999634,23.997208 
	C448.753998,22.856871 466.251282,25.198233 482.685883,34.014351 
	C532.237244,60.595547 537.953186,122.830597 510.232513,158.560196 
	C501.408478,169.933640 490.193451,178.845505 476.688477,183.744476 
	C469.192688,186.463608 460.763092,186.915421 452.687164,187.662125 
	C437.616028,189.055603 422.491577,189.863968 407.398193,191.030396 
	C401.610626,191.477661 398.243927,189.111771 395.906525,183.699753 
	C388.925262,167.535477 381.501312,151.562164 374.229919,135.523514 
	C372.022766,130.655090 372.793488,129.462265 378.362213,129.458908 
	C399.520813,129.446152 420.688873,129.070465 441.834686,129.590744 
	C455.547455,129.928162 463.708405,121.912773 464.753265,108.726410 
	C465.598999,98.053139 457.096802,88.862320 444.824188,87.077995 
	C442.035461,86.672539 439.182373,86.574051 436.358459,86.568329 
	C416.032928,86.527145 395.707153,86.592834 375.381775,86.530312 
	C361.227783,86.486771 347.074036,86.194977 332.920807,86.236290 
	C329.375031,86.246643 327.583771,84.923500 326.162201,81.721794 
	C318.544189,64.564606 310.700928,47.507488 302.945282,30.411352 
	C300.192657,24.343664 300.922852,23.129704 307.590942,23.170916 
	C348.227295,23.422058 388.863403,23.716927 429.999634,23.997208 
z"/>
<path fill="#242021" opacity="1.000000" stroke="none" 
	d="
M311.502563,234.505371 
	C292.151825,192.560730 273.049255,150.915619 253.761856,109.356255 
	C252.192642,105.975014 252.180344,103.206810 253.569626,99.927536 
	C263.152130,77.308899 272.603149,54.634533 282.211792,32.027096 
	C282.909271,30.386055 284.516418,29.131651 285.700653,27.697483 
	C286.844055,29.238081 288.322021,30.630058 289.081970,32.340973 
	C308.762115,76.648560 328.171844,121.077301 348.045959,165.297379 
	C364.852783,202.692612 382.186279,239.851120 399.260742,277.126282 
	C399.723511,278.136536 399.888123,279.283356 400.233032,280.513580 
	C391.370300,280.513580 382.816986,280.675751 374.272125,280.475800 
	C361.301453,280.172302 348.331085,279.722839 335.376465,279.035919 
	C333.754181,278.949890 331.480133,277.403534 330.774475,275.928101 
	C324.258545,262.303680 318.021240,248.546005 311.502563,234.505371 
z"/>
<path fill="#242021" opacity="1.000000" stroke="none" 
	d="
M245.775955,215.759933 
	C236.891434,236.276535 228.166595,256.445374 218.899506,277.867676 
	C215.567078,270.588135 212.900101,264.761749 210.232742,258.935547 
	C187.211868,208.652222 164.232361,158.349854 141.102264,108.116814 
	C138.927505,103.393753 138.699631,99.449547 140.878021,94.469429 
	C149.993988,73.629051 158.528503,52.534855 167.407425,31.589344 
	C168.159851,29.814383 169.883865,28.451275 171.156494,26.896832 
	C172.376740,28.356491 174.009018,29.631592 174.757507,31.302568 
	C198.926071,85.257553 222.876617,139.310867 247.271194,193.163101 
	C250.366318,199.995743 251.359787,205.818848 247.257568,212.191040 
	C246.639771,213.150711 246.367645,214.332916 245.775955,215.759933 
z"/>
<path fill="#262223" opacity="1.000000" stroke="none" 
	d="
M112.508514,212.459534 
	C122.409348,234.009598 132.118713,255.233032 142.215683,277.303650 
	C139.733322,277.543671 138.181290,277.822449 136.628876,277.824463 
	C114.657066,277.852905 92.685188,277.854218 70.713348,277.837189 
	C64.524857,277.832397 63.649891,276.468964 66.141418,270.667297 
	C77.070587,245.218185 88.017273,219.776581 98.994476,194.348160 
	C99.494507,193.189850 100.351883,192.185776 102.009964,189.603912 
	C105.795525,197.878296 109.056282,205.005600 112.508514,212.459534 
z"/>
<path fill="#2B2728" opacity="1.000000" stroke="none" 
	d="
M684.923767,248.027878 
	C677.639709,248.009628 677.639709,248.009628 674.784912,244.850128 
	C669.101257,249.551849 662.166016,249.372742 655.304932,244.154434 
	C652.610352,250.084686 649.048401,248.472885 645.281433,244.812515 
	C642.290039,249.973938 639.469299,247.935455 636.924316,244.749527 
	C628.567017,249.727798 617.264404,249.637711 613.376343,245.656891 
	C609.855225,246.563461 606.984314,248.041870 604.222717,247.860077 
	C598.437988,247.479218 595.726379,249.767105 593.613220,255.152740 
	C585.642822,275.467072 562.647156,286.145691 542.413879,278.910583 
	C537.620422,277.196503 533.544067,273.476715 528.288330,270.140228 
	C519.327515,276.825439 508.494873,281.095245 495.871704,277.027649 
	C488.029602,274.500641 481.496765,270.207733 476.857483,263.280457 
	C468.822601,251.282761 471.771423,237.879135 486.237488,224.005173 
	C485.402618,225.605774 484.616394,227.234055 483.724670,228.802338 
	C479.233337,236.701385 476.421448,244.895599 479.514771,254.028763 
	C483.815948,266.728271 497.202759,273.231567 511.177612,269.471558 
	C512.296997,269.170349 513.398438,268.786133 514.483032,268.374207 
	C524.859253,264.433594 525.759155,262.814819 524.286072,251.880920 
	C525.306580,254.296768 526.327148,256.712616 527.584961,259.690277 
	C530.605896,255.923157 533.577576,252.581818 536.045044,248.902283 
	C536.720947,247.894302 535.970764,245.858887 535.723450,244.319321 
	C535.343323,241.953003 534.832031,239.607758 534.376465,237.253571 
	C536.855713,237.114075 540.231445,235.870499 541.657349,237.028275 
	C547.483704,241.759109 554.078796,239.204086 560.190369,240.510223 
	C560.419373,240.068222 560.648438,239.626236 560.877441,239.184235 
	C559.811096,238.430328 558.619751,237.801712 557.708374,236.892441 
	C556.415894,235.602798 554.567932,234.199020 554.382141,232.670837 
	C554.215820,231.303040 555.702454,228.804001 556.956787,228.417709 
	C558.721741,227.874146 561.430969,228.169708 562.883179,229.251633 
	C567.363220,232.589325 568.500671,242.528809 565.100586,247.201187 
	C564.324219,248.268021 562.487183,248.806671 561.044861,249.063461 
	C560.005371,249.248535 558.822998,248.501205 557.683472,248.275482 
	C549.467773,246.648209 546.796204,248.047943 542.544067,254.952957 
	C539.951477,259.162933 536.674988,262.951782 533.388794,267.354370 
	C539.873169,272.565857 547.757446,275.688782 556.425110,274.513702 
	C570.589722,272.593323 581.234802,265.307709 586.134216,251.283356 
	C586.800110,249.377045 585.897095,246.970657 586.009277,244.810791 
	C586.151062,242.081696 585.657471,238.577484 587.129456,236.843338 
	C589.065308,234.562592 592.063110,235.741287 594.519409,237.960663 
	C599.315491,242.294159 609.028198,240.414597 612.321106,234.797394 
	C612.740173,234.082489 613.166687,233.371933 613.823914,232.264847 
	C617.775146,235.694397 619.386108,240.599121 625.320251,240.206436 
	C630.293884,239.877350 633.899292,238.490463 636.460999,233.295654 
	C638.242126,235.680145 639.474121,237.329422 640.922668,239.268616 
	C642.149109,237.917953 643.413147,236.525803 644.992126,234.786804 
	C646.574707,236.170395 648.030090,237.442810 649.811096,238.999878 
	C652.621399,234.075592 655.379150,234.358185 659.555420,238.297058 
	C663.925354,242.418610 671.310364,240.219955 674.525635,234.854492 
	C674.953552,234.140472 675.407776,233.442291 675.796692,232.821655 
	C679.076477,235.499023 681.486877,238.626740 684.602173,239.690948 
	C687.866272,240.806000 691.807068,239.940247 695.994934,239.940247 
	C697.196655,231.748016 697.795959,222.917328 694.214050,214.295151 
	C693.386658,212.303558 692.403198,210.377075 691.563049,208.390427 
	C690.983765,207.020950 690.307800,205.637375 690.058777,204.193893 
	C689.378052,200.248383 691.969910,196.170151 695.494812,195.994278 
	C700.246765,195.757187 700.405457,199.701706 700.800598,202.878586 
	C701.659363,209.782303 702.556458,216.712540 702.790833,223.653793 
	C703.024719,230.579544 703.141785,237.637360 702.075562,244.443893 
	C700.941101,251.685852 698.445679,252.334106 692.110657,248.867233 
	C690.888062,248.198166 689.254517,248.280182 687.068787,248.008453 
	C685.859253,248.010071 685.391541,248.018982 684.923767,248.027878 
z"/>
<path fill="#26469E" opacity="1.000000" stroke="none" 
	d="
M94.617355,347.301453 
	C96.288612,352.739838 97.806229,357.807556 99.713768,364.177368 
	C102.023193,356.735596 103.964279,350.482025 105.904533,344.228180 
	C107.578270,338.833344 109.134079,333.396942 111.012039,328.074188 
	C111.445473,326.845734 112.938774,325.179688 114.015686,325.125183 
	C119.788742,324.833160 125.584351,324.987335 131.611038,324.987335 
	C131.611038,346.226685 131.611038,366.992493 131.611038,388.165344 
	C126.921860,388.165344 122.226509,388.165344 117.199646,388.165344 
	C117.199646,377.067261 117.199646,366.194946 117.199646,355.322662 
	C116.898422,355.259705 116.597198,355.196777 116.295975,355.133820 
	C113.241730,364.511536 110.090408,373.859344 107.187027,383.283539 
	C106.199860,386.487885 105.514732,389.117432 101.104858,388.676971 
	C97.039917,388.270996 93.300262,389.365845 91.803871,383.325928 
	C89.465569,373.887756 85.766685,364.786652 81.963593,355.611237 
	C81.963593,366.375397 81.963593,377.139526 81.963593,388.233032 
	C77.106674,388.233032 72.682640,388.233032 67.841125,388.233032 
	C67.841125,367.368347 67.841125,346.490143 67.841125,324.996582 
	C73.732681,324.996582 79.665237,324.868042 85.580544,325.129700 
	C86.509636,325.170776 87.768982,326.837067 88.179367,327.997986 
	C90.395210,334.266144 92.391632,340.611877 94.617355,347.301453 
z"/>
<path fill="#27479F" opacity="1.000000" stroke="none" 
	d="
M211.578949,368.008545 
	C211.575653,374.971405 211.575653,381.430878 211.575653,388.229279 
	C206.401352,388.229279 201.695435,388.229279 196.706314,388.229279 
	C196.706314,367.231995 196.706314,346.484619 196.706314,324.490021 
	C209.442551,325.046997 222.320450,324.425354 234.750626,326.494019 
	C246.679016,328.479156 250.926163,345.456482 242.995102,355.298584 
	C242.176590,356.314301 240.980255,357.025513 239.657135,358.130310 
	C249.776703,366.090027 243.690842,378.760132 249.905685,388.538788 
	C244.758789,388.538788 240.041626,388.743744 235.369720,388.375092 
	C234.371124,388.296265 232.964401,386.236298 232.732407,384.915680 
	C231.987305,380.674500 231.714020,376.351044 231.240433,372.061340 
	C230.694504,367.116333 227.900620,364.665039 222.945038,364.636627 
	C220.114502,364.620422 217.247101,364.334778 214.472061,364.718475 
	C213.400833,364.866577 212.539307,366.531311 211.578949,368.008545 
M229.151978,350.981354 
	C232.319656,348.642242 233.130066,345.113983 231.242615,342.236786 
	C229.884125,340.165863 226.683014,338.636505 224.081161,338.203461 
	C220.096832,337.540283 215.920731,338.029358 211.874634,338.029358 
	C211.874634,342.984833 211.874634,347.371399 211.874634,352.489868 
	C217.621399,352.089752 223.004501,351.714935 229.151978,350.981354 
z"/>
<path fill="#111112" opacity="1.000000" stroke="none" 
	d="
M883.947144,388.964294 
	C881.153625,388.964294 878.839233,388.964294 876.203857,388.964294 
	C876.203857,368.017029 876.203857,347.285095 876.203857,325.886566 
	C880.157043,325.886566 884.276917,325.610352 888.321228,326.041992 
	C889.668701,326.185791 891.206909,327.921967 892.003906,329.306610 
	C898.181763,340.040192 904.199524,350.865936 910.924072,362.833038 
	C910.924072,349.832031 910.924072,338.139709 910.924072,326.167297 
	C915.710205,326.167297 920.112671,326.167297 924.819458,326.167297 
	C924.819458,346.888733 924.819458,367.632385 924.819458,388.959473 
	C920.810669,388.959473 916.673462,389.243256 912.616089,388.798431 
	C911.279419,388.651886 909.792297,386.827087 908.981506,385.419647 
	C902.807373,374.702698 896.783813,363.899017 890.044128,351.934235 
	C890.044128,365.007477 890.044128,376.705200 890.044128,388.964294 
	C887.960327,388.964294 886.193298,388.964294 883.947144,388.964294 
z"/>
<path fill="#23449D" opacity="1.000000" stroke="none" 
	d="
M255.138336,372.686890 
	C251.679703,363.846588 251.292953,355.130402 253.315567,346.353882 
	C256.828674,331.109863 268.954163,322.772247 285.648621,323.874481 
	C298.773804,324.741089 309.635345,336.437012 310.740723,351.738861 
	C311.141266,357.284119 310.739563,363.116089 309.433289,368.509460 
	C306.493073,380.649384 297.034912,388.576508 285.287292,389.834747 
	C271.970398,391.261078 261.952789,385.661835 255.138336,372.686890 
M294.572601,347.279083 
	C291.398193,340.019562 286.816010,336.652039 280.837982,337.185272 
	C274.729645,337.730164 269.341095,342.002380 268.440125,348.938721 
	C267.672791,354.846344 267.933716,361.178619 269.239960,366.985565 
	C270.647217,373.241547 275.742401,376.142181 281.881165,376.153961 
	C287.829010,376.165375 291.744873,373.325378 294.144318,367.106964 
	C296.560516,360.845062 296.517303,354.462952 294.572601,347.279083 
z"/>
<path fill="#131314" opacity="1.000000" stroke="none" 
	d="
M468.600708,352.544739 
	C471.049927,332.271667 485.658600,320.899933 503.767853,325.005707 
	C513.486084,327.209045 519.705017,333.621948 523.025635,342.796600 
	C526.355957,351.997925 526.355530,361.429138 523.464172,370.710510 
	C519.376221,383.833038 508.361908,391.337067 495.138245,390.425690 
	C481.573486,389.490875 471.496094,380.333923 469.197540,366.368317 
	C468.476929,361.990143 468.739929,357.450104 468.600708,352.544739 
M499.067078,337.932617 
	C491.143677,337.742767 486.741425,340.591125 484.397217,347.853058 
	C482.244873,354.520508 482.255371,361.262238 484.776184,367.870667 
	C486.995300,373.688141 491.600281,377.023071 497.139893,376.999969 
	C502.447052,376.977783 506.844147,373.723389 508.984955,367.953918 
	C511.431732,361.359924 511.571869,354.627472 509.455658,347.926758 
	C507.929199,343.093567 505.086212,339.383331 499.067078,337.932617 
z"/>
<path fill="#0F0F10" opacity="1.000000" stroke="none" 
	d="
M788.068726,382.777130 
	C787.262695,365.212799 785.817749,363.916931 768.746216,365.045410 
	C768.618225,365.053894 768.502563,365.248108 767.965942,365.723145 
	C767.965942,373.086029 767.965942,380.831238 767.965942,388.761353 
	C763.110657,388.761353 758.664673,388.761353 753.893127,388.761353 
	C753.893127,368.028015 753.893127,347.296143 753.893127,326.274139 
	C765.437317,326.274139 777.041565,325.736053 788.561462,326.488586 
	C794.845154,326.899048 799.546753,331.268250 801.260925,337.689728 
	C803.369080,345.586884 802.347961,352.872650 795.603455,358.875977 
	C804.977173,366.849121 799.224548,379.325684 805.005432,388.960693 
	C801.409668,388.960693 798.120605,388.655090 794.912231,389.033569 
	C790.296570,389.578064 788.072021,387.853394 788.068726,382.777130 
M766.003357,347.440521 
	C766.911987,349.907043 763.847778,354.193024 768.385193,354.792969 
	C773.257690,355.437256 778.330566,355.129639 783.255676,354.635712 
	C787.277771,354.232330 789.745361,351.667725 789.992615,347.330170 
	C790.260803,342.625000 789.150513,338.599396 784.221680,337.036896 
	C781.764282,336.257812 779.035400,336.104156 776.425232,336.078094 
	C766.004333,335.973938 766.003723,336.033569 766.003357,347.440521 
z"/>
<path fill="#24449D" opacity="1.000000" stroke="none" 
	d="
M336.892944,374.458313 
	C347.271423,378.704559 352.549255,375.381836 355.747528,362.759399 
	C360.253876,362.759399 364.847351,362.759399 369.443237,362.759644 
	C371.726715,373.131653 362.926636,385.987885 351.516907,388.952393 
	C333.892090,393.531799 318.363922,383.474823 315.237091,365.081635 
	C313.370239,354.100250 314.586609,343.515106 321.551239,334.237579 
	C328.475708,325.013580 340.844391,321.278351 352.493103,324.857330 
	C362.558777,327.949921 369.228821,336.606934 369.870575,347.698547 
	C365.122955,347.698547 360.384125,347.698547 355.624695,347.698547 
	C352.022675,338.568573 346.574310,335.230865 339.284546,338.094025 
	C337.232727,338.899902 335.268646,340.468079 333.813477,342.159149 
	C328.028229,348.882233 327.838257,368.536285 336.892944,374.458313 
z"/>
<path fill="#24449D" opacity="1.000000" stroke="none" 
	d="
M179.048660,345.853394 
	C184.111938,360.103790 189.063416,373.979095 194.262390,388.548035 
	C189.190033,388.548035 184.739914,388.758606 180.336014,388.400604 
	C179.229630,388.310638 177.807739,386.574310 177.318405,385.293640 
	C173.337021,374.874268 173.374115,375.254272 162.006165,374.690308 
	C155.937378,374.389221 152.711212,376.152740 151.936279,382.188446 
	C151.269501,387.381897 148.447464,389.511719 143.123337,388.633514 
	C140.540665,388.207550 137.829636,388.559937 134.630142,388.559937 
	C134.987350,387.013916 135.147797,385.782501 135.554657,384.638733 
	C142.181152,366.010223 148.933350,347.425537 155.398468,328.741425 
	C156.503555,325.547760 158.118073,324.889099 161.175888,324.921814 
	C171.603104,325.033417 171.602692,324.923065 175.078629,334.687012 
	C176.359802,338.285889 177.650497,341.881317 179.048660,345.853394 
M168.407532,362.558289 
	C168.686783,361.929047 169.339371,361.185760 169.187363,360.688293 
	C167.717896,355.879547 166.113266,351.112091 164.082932,344.915833 
	C161.924759,351.534546 160.225876,356.744659 158.314911,362.605194 
	C162.009933,362.605194 164.815872,362.605194 168.407532,362.558289 
z"/>
<path fill="#1F409B" opacity="1.000000" stroke="none" 
	d="
M473.999817,412.537415 
	C412.192902,412.535034 350.885986,412.554291 289.579285,412.444885 
	C287.345856,412.440918 285.114685,411.174377 282.882446,410.496216 
	C285.122223,409.843994 287.361450,408.623138 289.601868,408.621002 
	C412.881683,408.503510 536.161621,408.488129 659.441528,408.462402 
	C661.430603,408.462006 663.419678,408.462341 665.408813,408.462341 
	C665.737549,408.869110 666.066345,409.275879 666.395081,409.682648 
	C665.402710,410.624725 664.557800,411.975067 663.378906,412.400543 
	C662.049438,412.880463 660.419556,412.536407 658.920288,412.536438 
	C597.446777,412.537842 535.973328,412.537598 473.999817,412.537415 
z"/>
<path fill="#101011" opacity="1.000000" stroke="none" 
	d="
M440.648254,325.978760 
	C453.177795,327.687012 459.377167,335.900757 458.419128,348.950623 
	C457.602051,360.080536 450.121094,366.884399 438.592285,366.958984 
	C434.624542,366.984680 430.656494,366.963074 426.247620,366.963074 
	C426.247620,374.339172 426.247620,381.404572 426.247620,388.712585 
	C421.389587,388.712585 416.966370,388.712585 412.210938,388.712585 
	C412.210938,368.048035 412.210938,347.337524 412.210938,325.946869 
	C421.391205,325.946869 430.791351,325.946869 440.648254,325.978760 
M444.034668,344.905731 
	C441.647766,339.378265 436.639709,337.971985 426.303375,340.023010 
	C426.303375,344.551727 426.303375,349.120056 426.303375,353.733032 
	C426.935364,353.932098 427.385376,354.193695 427.837036,354.196564 
	C430.656586,354.214417 433.482178,354.281647 436.295074,354.131561 
	C442.283691,353.812012 443.840363,352.078918 444.034668,344.905731 
z"/>
<path fill="#2D292A" opacity="1.000000" stroke="none" 
	d="
M685.016418,248.454254 
	C685.391541,248.018982 685.859253,248.010071 686.677856,248.005707 
	C688.430725,252.217072 689.350159,256.671417 691.350464,260.571381 
	C694.183167,266.094330 701.920898,268.009827 709.046204,265.445129 
	C716.875671,262.626984 721.611023,257.106110 723.039551,248.928696 
	C722.729675,248.535477 722.567871,248.112427 722.340027,248.073257 
	C717.837646,247.299088 713.116699,246.618576 711.957397,241.146988 
	C710.766357,235.525436 713.113403,230.618896 716.535217,226.463318 
	C719.394653,222.990677 724.635132,223.798767 727.059082,227.984299 
	C728.524109,230.514023 729.298096,233.481522 730.138123,236.324524 
	C730.901733,238.908600 732.182861,240.230957 735.090637,240.032135 
	C738.459473,239.801758 741.856140,239.978470 745.681030,238.905533 
	C744.629944,238.266068 743.433594,237.779541 742.561829,236.951340 
	C741.251038,235.705933 739.421143,234.326553 739.206970,232.807404 
	C739.010498,231.414642 740.308838,229.041153 741.591919,228.412186 
	C743.067017,227.689072 745.672607,227.743103 747.048767,228.619293 
	C752.219299,231.911377 753.463562,243.626862 749.267639,248.123306 
	C748.550659,248.891586 746.965881,249.083740 745.773560,249.106964 
	C744.656494,249.128723 743.541870,248.502731 742.402771,248.283234 
	C733.419312,246.552094 731.267883,247.507370 727.040588,255.557632 
	C723.468811,262.359619 719.185181,268.718994 711.429077,270.772003 
	C696.816895,274.639832 691.577698,271.460541 686.815308,260.907959 
	C683.763794,261.406372 680.996277,262.069855 678.227234,262.076630 
	C677.824097,262.077606 676.572815,257.925110 677.158875,257.439972 
	C679.165649,255.778732 681.816101,254.895035 685.109070,253.278992 
	C685.109070,252.807556 685.109070,250.844086 685.016418,248.454254 
z"/>
<path fill="#312E2E" opacity="1.000000" stroke="none" 
	d="
M817.786133,372.995056 
	C817.786194,357.054810 817.786194,341.613434 817.786194,325.980652 
	C832.632080,325.980652 847.064087,325.980652 861.763916,325.980652 
	C861.763916,330.296783 861.763916,334.550842 861.763916,339.387238 
	C852.306702,339.387238 842.766113,339.387238 832.906067,339.387238 
	C832.906067,343.041107 832.906067,346.131958 832.906067,349.715454 
	C841.449646,349.715454 850.179321,349.715454 859.238525,349.715454 
	C859.238525,354.246887 859.238525,358.300171 859.238525,362.749756 
	C850.484558,362.749756 841.895081,362.749756 832.943115,362.749756 
	C832.943115,366.850739 832.943115,370.585663 832.943115,374.852295 
	C842.440613,374.852295 852.161194,374.852295 862.225769,374.852295 
	C862.225769,379.774048 862.225769,384.175995 862.225769,388.806702 
	C847.518250,388.806702 832.921570,388.806702 817.786072,388.806702 
	C817.786072,383.696411 817.786072,378.595154 817.786133,372.995056 
M819.973755,340.512573 
	C819.973816,354.011444 820.093933,367.512024 819.897461,381.008057 
	C819.841858,384.827148 820.770569,386.297211 824.884705,386.177673 
	C834.875427,385.887390 844.880981,386.016663 854.878967,386.122467 
	C858.036011,386.155853 860.236633,386.082520 860.173767,381.775726 
	C860.111267,377.499878 857.640015,377.919891 854.919800,377.929138 
	C846.811218,377.956726 838.702515,377.939056 830.408386,377.939056 
	C830.408386,371.691833 830.408386,366.141205 830.408386,360.059479 
	C838.222717,360.059479 845.688965,359.900116 853.143433,360.127289 
	C856.823059,360.239410 857.731018,358.265625 856.840515,355.563416 
	C856.442139,354.354431 854.142822,353.085358 852.665161,353.034393 
	C845.252380,352.778839 837.826050,352.917267 830.498169,352.917267 
	C830.498169,347.145111 830.498169,342.257385 830.498169,337.042480 
	C838.932373,337.042480 846.920105,336.911224 854.899902,337.105103 
	C858.236084,337.186157 859.214050,335.969452 859.167358,332.755676 
	C859.122009,329.637756 858.772156,327.768951 854.888000,327.897522 
	C847.063965,328.156586 839.225220,327.973785 831.392578,327.973633 
	C819.974060,327.973450 819.974060,327.973602 819.973755,340.512573 
z"/>
<path fill="#353132" opacity="1.000000" stroke="none" 
	d="
M949.066528,389.039276 
	C946.085754,389.039276 943.594788,389.039276 940.757141,389.039276 
	C940.757141,367.944824 940.757141,347.079010 940.757141,326.019257 
	C955.330322,326.019257 969.749756,326.019257 984.339966,326.019257 
	C984.339966,330.514008 984.339966,334.762665 984.339966,339.382324 
	C974.657410,339.382324 965.213989,339.382324 955.406372,339.382324 
	C955.406372,342.957489 955.406372,346.172058 955.406372,349.829529 
	C964.021606,349.829529 972.764282,349.829529 981.769531,349.829529 
	C981.769531,354.312836 981.769531,358.367279 981.769531,362.715210 
	C972.967651,362.715210 964.350708,362.715210 955.386963,362.715210 
	C955.386963,366.879272 955.386963,370.759155 955.386963,374.959106 
	C965.029785,374.959106 974.634399,374.959106 984.637817,374.959106 
	C984.637817,379.638519 984.637817,384.024933 984.637817,389.039276 
	C973.076477,389.039276 961.316406,389.039276 949.066528,389.039276 
M972.399109,352.897583 
	C970.068176,352.897614 967.737244,352.897675 965.406311,352.897675 
	C951.157166,352.897675 951.154724,352.897491 952.302002,338.482971 
	C952.325195,338.191254 952.601501,337.919678 953.086853,337.057709 
	C961.039062,337.057709 969.322205,336.908936 977.595764,337.127747 
	C981.115906,337.220856 982.194336,336.034393 982.159851,332.567474 
	C982.126831,329.252380 981.380920,327.803497 977.707703,327.884888 
	C967.722961,328.106201 957.726990,328.103027 947.742065,327.885529 
	C944.092346,327.806030 942.814941,328.802704 942.860046,332.625549 
	C943.052612,348.939697 943.021973,365.258118 942.877625,381.573273 
	C942.847290,385.005920 943.837891,386.243744 947.387451,386.172058 
	C957.372986,385.970245 967.366516,386.016876 977.354309,386.151642 
	C980.522888,386.194397 982.261780,385.684174 982.214722,381.863770 
	C982.170288,378.251526 980.483826,377.828491 977.567627,377.882568 
	C970.743713,378.009247 963.915710,377.943787 957.089661,377.906403 
	C955.512390,377.897766 953.936157,377.689697 952.427856,377.578461 
	C952.427856,371.525360 952.427856,366.099701 952.427856,360.830231 
	C953.035217,360.523468 953.321655,360.254120 953.610779,360.251068 
	C960.765137,360.175629 967.920349,360.163788 975.074219,360.060883 
	C978.605042,360.010132 980.758179,356.801575 978.685425,354.292145 
	C977.737732,353.144867 975.187622,353.321289 972.399109,352.897583 
z"/>
<path fill="#2D2A2B" opacity="1.000000" stroke="none" 
	d="
M657.166565,362.820862 
	C654.451111,361.862122 652.146301,360.912994 649.780212,360.155151 
	C636.095520,355.772095 636.106995,337.108490 644.658325,329.721130 
	C653.018005,322.499268 669.276367,322.119934 677.556763,329.431000 
	C682.358643,333.670776 684.113281,339.242462 683.977478,345.870361 
	C679.441345,345.870361 675.038879,345.870361 670.544678,345.870361 
	C668.059021,338.446869 663.896790,335.396576 657.900024,337.529144 
	C655.951416,338.222076 653.807617,340.503326 653.344604,342.438812 
	C653.064697,343.608826 655.549927,346.233887 657.303711,346.945129 
	C662.205688,348.933136 667.432007,350.102264 672.424377,351.890472 
	C682.634827,355.547852 686.656372,361.372620 686.120728,371.266937 
	C685.624023,380.442566 679.944519,387.314331 670.509460,389.552887 
	C663.241211,391.277374 655.939331,391.144653 648.989136,388.002625 
	C640.516541,384.172333 636.038147,375.812531 637.305054,366.317566 
	C641.724182,366.317566 646.172180,366.317566 650.621338,366.323120 
	C653.772888,376.253784 657.666016,379.335388 665.473694,376.986389 
	C667.806580,376.284485 670.250671,373.537445 671.049255,371.185913 
	C671.439209,370.037689 668.483032,367.088196 666.476196,365.954193 
	C663.787354,364.434723 660.550476,363.884979 657.166565,362.820862 
M681.008850,341.664185 
	C679.802795,335.163727 676.694336,329.904083 670.015076,328.225342 
	C665.754639,327.154541 661.115601,326.772034 656.739868,327.153778 
	C648.436768,327.878235 642.545410,334.107391 641.309753,342.415497 
	C640.296265,349.229340 644.084656,354.876648 652.272156,358.122650 
	C657.512085,360.200043 662.925354,361.839539 668.257568,363.684998 
	C672.411743,365.122772 674.738525,367.947632 673.841064,372.407715 
	C672.972351,376.724854 670.102966,379.417236 665.626160,379.931793 
	C656.209534,381.014038 651.965698,378.391174 648.090759,369.366699 
	C645.476318,369.366699 642.906738,369.366699 638.653992,369.366699 
	C640.609192,373.630402 641.605530,377.305481 643.722290,380.145355 
	C650.841370,389.696198 665.931335,389.875336 675.151611,384.855347 
	C681.006409,381.667725 683.934143,375.882202 683.700073,369.473053 
	C683.474854,363.305206 680.729614,357.824432 674.169617,355.546356 
	C667.751709,353.317657 661.166321,351.508301 654.921204,348.880890 
	C652.883972,348.023834 650.489990,345.218903 650.415405,343.224243 
	C650.328674,340.905121 652.018799,337.648071 653.974121,336.286224 
	C660.033020,332.066284 668.230896,334.504852 671.836609,340.986633 
	C673.878174,344.656494 676.866150,345.146698 681.008850,341.664185 
z"/>
<path fill="#28489F" opacity="1.000000" stroke="none" 
	d="
M888.016724,240.631012 
	C890.845825,240.226456 893.674927,239.821899 896.503967,239.417343 
	C896.487549,239.105377 896.471069,238.793411 896.454651,238.481430 
	C895.407532,238.282715 894.246216,238.303162 893.341370,237.831497 
	C892.127625,237.198761 890.321533,236.282349 890.202637,235.312195 
	C890.037048,233.960388 890.816162,232.023758 891.861511,231.080383 
	C895.045166,228.207352 898.417236,225.484894 902.010803,223.159485 
	C903.098083,222.455902 905.519531,222.673187 906.681091,223.445023 
	C909.827332,225.535675 912.776611,227.994614 915.490662,230.630234 
	C916.651184,231.757263 918.053833,234.491638 917.575806,235.096649 
	C916.212524,236.822144 913.940002,237.829269 911.587646,239.413757 
	C916.886963,239.413757 922.134277,239.413757 927.684875,239.413757 
	C928.016052,235.391953 929.079590,231.642975 934.365906,231.461807 
	C938.705505,231.313080 942.627930,234.499466 944.108582,239.956726 
	C944.747070,242.310135 945.075806,244.914413 944.795288,247.317169 
	C944.117615,253.121201 937.907288,255.562927 933.687134,251.470566 
	C930.589233,248.466446 927.390503,247.550491 923.347229,247.916901 
	C920.873474,248.141083 918.335144,248.096970 915.865234,247.820984 
	C911.649353,247.349960 907.464417,246.601883 902.078674,245.791443 
	C899.385681,249.283218 893.965942,247.760666 888.452332,247.398911 
	C888.003906,244.848236 888.010315,242.739624 888.016724,240.631012 
M903.621094,229.198624 
	C901.884705,230.617096 900.148315,232.035583 897.839539,233.921692 
	C901.939514,233.921692 905.451111,233.921692 910.312683,233.921692 
	C907.448120,231.678528 905.893311,230.461029 903.621094,229.198624 
M934.415710,243.898056 
	C935.719055,244.468597 937.022400,245.039139 938.325806,245.609665 
	C938.450500,244.384232 939.024109,242.954605 938.583618,241.986252 
	C938.059998,240.835068 936.664917,240.080292 935.647400,239.153717 
	C935.132019,240.492752 934.616577,241.831772 934.415710,243.898056 
z"/>
<path fill="#2A4AA0" opacity="1.000000" stroke="none" 
	d="
M809.833679,255.056198 
	C809.461792,251.381943 807.449402,250.174011 803.827148,250.498810 
	C801.552551,250.702759 799.167786,250.238632 796.891968,249.779404 
	C781.561035,246.685852 773.715393,232.145172 780.007874,217.754593 
	C782.635437,211.745422 786.431152,206.247040 789.695740,200.516403 
	C790.141174,200.745026 790.586670,200.973648 791.032104,201.202271 
	C790.272583,202.844681 789.486328,204.475342 788.758789,206.131775 
	C786.960083,210.227188 784.624390,214.187439 783.509705,218.464005 
	C779.977173,232.016388 787.901062,242.933426 801.874451,242.912216 
	C809.747437,242.900253 817.632385,240.927353 825.483582,239.661545 
	C831.374939,238.711716 837.227051,237.511307 843.080688,236.342285 
	C843.954529,236.167755 844.740479,235.553040 846.682068,234.587509 
	C843.813843,232.723022 841.713745,231.304092 839.561279,229.969711 
	C834.938293,227.103867 834.153137,224.946045 836.634216,221.721878 
	C838.523987,219.266113 843.867615,219.020111 846.665527,221.260132 
	C850.040894,223.962463 852.186523,230.385849 850.392334,234.405182 
	C848.125549,239.483200 846.564148,244.429230 838.603577,244.750992 
	C829.281067,245.127823 820.078613,248.475021 810.289551,250.652634 
	C810.437500,251.670593 810.612000,252.871674 810.556274,254.551392 
	C810.325989,255.030014 809.833679,255.056198 809.833679,255.056198 
z"/>
<path fill="#26469E" opacity="1.000000" stroke="none" 
	d="
M809.759766,255.468933 
	C809.833679,255.056198 810.325989,255.030014 810.572266,255.017975 
	C814.812317,272.878937 839.071899,278.736603 851.951660,272.209045 
	C860.214417,268.021393 867.181091,262.775238 870.813904,253.904129 
	C872.196594,250.527634 873.799438,247.529190 871.280701,243.671951 
	C870.327271,242.211899 870.988403,238.286530 872.327087,237.150543 
	C873.583618,236.084305 876.784424,236.903564 878.986816,237.459366 
	C881.795166,238.168060 884.460022,239.445572 887.601685,240.554443 
	C888.010315,242.739624 888.003906,244.848236 887.997864,247.358353 
	C882.950195,248.741150 880.214539,251.944061 878.245117,256.620728 
	C870.307495,275.469696 846.870911,285.887268 828.184448,278.990021 
	C817.460266,275.031677 811.131775,267.362976 809.759766,255.468933 
z"/>
<path fill="#2F2B2C" opacity="1.000000" stroke="none" 
	d="
M612.562256,372.091248 
	C612.562256,377.881775 612.562256,383.186676 612.562256,388.754517 
	C607.605774,388.754517 603.039551,388.754517 598.121460,388.754517 
	C598.071106,387.759308 597.873413,386.790192 597.997375,385.864105 
	C599.985962,371.001465 596.040222,357.817474 587.531494,345.569336 
	C583.392944,339.611969 580.366272,332.882172 576.445068,325.795105 
	C581.803467,325.795105 586.583557,325.601685 591.328125,325.926788 
	C592.563477,326.011475 594.108459,327.479980 594.793152,328.711975 
	C598.416992,335.232819 601.811646,341.880981 605.403992,348.709686 
	C608.946472,342.048645 612.503601,335.613159 615.791687,329.043030 
	C616.978943,326.670685 618.282471,325.530182 621.093018,325.721313 
	C625.205811,326.001068 629.351746,325.793335 634.157043,325.793335 
	C627.840393,337.243408 621.618835,347.962677 616.010254,358.993591 
	C614.075745,362.798340 613.667664,367.379242 612.562256,372.091248 
M625.907227,335.326843 
	C626.925049,333.139801 627.942871,330.952789 629.025940,328.625488 
	C620.116577,327.082184 620.097656,327.072174 616.409180,334.043579 
	C613.610901,339.332245 610.839172,344.635468 608.118286,349.964172 
	C607.205261,351.752319 606.485352,353.639038 605.579651,355.703064 
	C601.868103,348.403900 598.481812,341.783508 595.131348,335.145050 
	C591.087585,327.133026 591.100769,327.126373 581.182556,328.521759 
	C584.125244,333.913269 586.744202,339.246826 589.844788,344.283905 
	C596.865479,355.689362 603.519226,367.120026 600.943604,381.379303 
	C600.262817,385.148499 602.035461,386.188782 605.711121,386.192657 
	C609.415100,386.196564 609.952515,384.679688 610.133789,381.436432 
	C610.553711,373.926666 608.211975,366.155243 612.530701,358.965118 
	C617.063110,351.419250 621.229675,343.653656 625.907227,335.326843 
z"/>
<path fill="#353132" opacity="1.000000" stroke="none" 
	d="
M720.000366,325.775024 
	C727.495300,325.775085 734.490234,325.775085 741.855225,325.775085 
	C741.855225,330.232117 741.855225,334.608582 741.855225,339.512115 
	C736.646057,339.512115 731.412720,339.512115 725.630310,339.512115 
	C725.630310,356.244659 725.630310,372.471497 725.630310,388.863098 
	C720.441162,388.863098 715.817688,388.863098 710.876099,388.863098 
	C710.876099,372.638458 710.876099,356.518005 710.876099,339.767151 
	C705.195251,339.767151 699.800049,339.767151 694.191528,339.767151 
	C694.191528,334.866699 694.191528,330.593842 694.191528,325.774963 
	C702.630737,325.774963 711.065552,325.774963 720.000366,325.775024 
M712.960327,342.650818 
	C712.960388,354.957520 712.966919,367.264191 712.956177,379.570892 
	C712.953186,383.013031 712.087524,386.309052 717.893005,386.320862 
	C723.423462,386.332123 723.128479,383.548553 723.096008,379.810638 
	C722.993469,368.003754 723.058167,356.195435 723.058167,344.387665 
	C723.058167,342.121552 723.058167,339.855438 723.058167,337.058014 
	C727.532288,337.058014 731.321655,336.971069 735.104980,337.085999 
	C738.027527,337.174805 740.285828,337.125000 740.137878,333.042480 
	C740.012573,329.583282 739.212830,327.845795 735.338501,327.902100 
	C723.865723,328.068878 712.387207,328.076050 700.914978,327.893738 
	C697.378052,327.837555 696.868835,329.422729 696.816650,332.409576 
	C696.759399,335.684448 697.489380,337.393372 701.212280,337.117950 
	C704.950195,336.841370 708.724548,337.057159 712.641846,337.057159 
	C712.781555,339.094818 712.870728,340.395050 712.960327,342.650818 
z"/>
<path fill="#2C2829" opacity="1.000000" stroke="none" 
	d="
M538.183044,327.282471 
	C542.893982,326.320557 547.568909,325.835602 552.776855,325.295380 
	C552.776855,342.105560 552.776855,358.303528 552.776855,374.964783 
	C561.955688,374.964783 570.669678,374.964783 579.697021,374.964783 
	C579.697021,379.801147 579.697021,384.177002 579.697021,388.763550 
	C565.949646,388.763550 552.251038,388.763550 538.146973,388.763550 
	C538.146973,368.260559 538.146973,348.010010 538.183044,327.282471 
M540.960571,375.474701 
	C540.961975,377.802124 541.047913,380.133423 540.941711,382.455902 
	C540.829834,384.903229 541.625000,386.114197 544.319946,386.088196 
	C554.127380,385.993500 563.937256,385.975647 573.744202,386.093109 
	C576.962830,386.131653 577.045044,384.283752 577.095825,381.912445 
	C577.150513,379.349487 576.608093,377.836884 573.553955,377.918518 
	C567.573486,378.078339 561.570374,377.700134 555.606018,378.048676 
	C551.312378,378.299561 549.838379,377.134552 549.946228,372.582672 
	C550.261230,359.290619 549.931946,345.984344 550.138062,332.688019 
	C550.196472,328.922211 548.997742,327.858917 545.306702,327.868927 
	C541.657166,327.878845 540.868652,329.272552 540.901855,332.587708 
	C541.041687,346.550781 540.960632,360.516113 540.960571,375.474701 
z"/>
<path fill="#383435" opacity="1.000000" stroke="none" 
	d="
M845.571106,317.363586 
	C846.721191,319.198700 847.653748,320.737885 848.608948,322.314423 
	C836.295166,326.706879 831.971436,315.935425 824.947021,309.394714 
	C828.918640,309.394714 832.912048,309.658203 836.856812,309.332520 
	C842.669800,308.852570 842.764954,314.242340 845.571106,317.363586 
M842.591125,319.483337 
	C840.766968,312.070129 838.797668,310.843719 831.134216,312.864197 
	C834.975525,315.349762 836.213135,320.867126 842.591125,319.483337 
z"/>
<path fill="#353132" opacity="1.000000" stroke="none" 
	d="
M124.405151,230.178131 
	C123.776520,227.683228 123.147881,225.188339 122.322060,221.910889 
	C118.968788,221.192490 116.903671,218.598999 119.237442,213.264389 
	C120.401436,212.129379 121.237518,211.489334 122.073601,210.849274 
	C122.617302,211.184677 123.121460,211.695770 123.710800,211.828445 
	C129.872879,213.215591 130.670441,215.109268 127.808044,220.137283 
	C129.608917,221.436386 131.334518,222.681183 132.611633,224.596191 
	C131.982239,225.586365 131.801331,225.906342 131.620438,226.226318 
	C130.192856,225.523773 128.776855,224.365234 127.332344,224.328506 
	C126.696503,224.312332 126.002640,226.577866 125.189438,228.514221 
	C124.830887,229.540024 124.618019,229.859070 124.405151,230.178131 
M120.651253,217.509598 
	C122.425400,217.602875 124.199554,217.696152 125.973701,217.789413 
	C126.014732,216.789474 126.055763,215.789551 126.096794,214.789612 
	C124.344627,215.273193 122.590752,215.750870 120.845032,216.256729 
	C120.751488,216.283844 120.726685,216.548203 120.651253,217.509598 
z"/>
<path fill="#383435" opacity="1.000000" stroke="none" 
	d="
M109.407936,194.108490 
	C108.326256,193.647919 108.598900,192.917526 110.696411,191.283524 
	C109.086868,191.123352 107.766129,190.991913 107.506737,190.966110 
	C106.309151,188.663300 105.476234,187.061691 104.478386,185.142944 
	C107.160431,183.936890 110.284103,182.532257 113.410492,181.126389 
	C117.040161,184.906219 112.499260,185.660492 111.218246,187.616150 
	C113.534706,188.222656 115.822090,188.821548 118.109474,189.420441 
	C118.054779,189.959900 118.000084,190.499344 117.945389,191.038803 
	C115.870720,192.002884 113.796043,192.966949 111.155373,193.934998 
	C110.195557,193.995468 109.801750,194.051987 109.407936,194.108490 
z"/>
<path fill="#383435" opacity="1.000000" stroke="none" 
	d="
M122.236694,210.521286 
	C121.237518,211.489334 120.401436,212.129379 119.264793,212.892456 
	C117.944305,212.907898 116.924393,212.800308 115.717705,212.673019 
	C116.735779,210.600662 117.550621,208.942001 118.204689,207.610626 
	C116.018723,206.852509 114.512192,206.330032 113.377609,205.424515 
	C114.159737,204.884506 114.569931,204.727539 115.218216,204.299332 
	C115.992294,203.692719 116.528282,203.357346 117.033829,203.013611 
	C117.003387,203.005264 117.032974,203.059830 117.032974,203.059814 
	C118.877831,202.557129 120.722694,202.054443 122.956635,201.445724 
	C123.055435,204.443954 128.571655,207.432404 122.236694,210.521286 
z"/>
<path fill="#454243" opacity="1.000000" stroke="none" 
	d="
M114.980118,204.570557 
	C114.569931,204.727539 114.159737,204.884506 113.524696,204.999802 
	C112.874924,204.190964 111.893707,203.140717 112.116402,202.703079 
	C113.447662,200.086761 113.179070,198.468491 110.025726,197.755127 
	C109.736923,197.689789 109.814949,196.002975 109.565285,194.588806 
	C109.801750,194.051987 110.195557,193.995468 110.790367,193.967865 
	C112.366829,194.384445 113.726242,194.848846 115.121765,195.140518 
	C116.905449,195.513306 118.718254,195.746750 120.518509,196.040253 
	C119.561722,197.581802 118.615692,199.130188 117.643158,200.661743 
	C117.224297,201.321396 116.750504,201.946167 116.667313,202.823303 
	C117.032974,203.059830 117.003387,203.005264 116.667252,202.623260 
	C115.880791,203.017685 115.430458,203.794128 114.980118,204.570557 
z"/>
<path fill="#312E2E" opacity="1.000000" stroke="none" 
	d="
M617.442566,213.154022 
	C619.498413,214.169693 622.094910,215.001968 622.555725,216.493927 
	C622.924500,217.687805 621.024841,220.360901 619.510803,221.093277 
	C618.441895,221.610260 614.901062,219.866135 614.943420,219.325699 
	C615.105164,217.259644 616.270569,215.272202 617.442566,213.154022 
z"/>
<path fill="#3452A4" opacity="1.000000" stroke="none" 
	d="
M841.387817,253.700867 
	C844.325684,255.544846 844.708313,257.995819 842.718323,260.027130 
	C841.603638,261.164825 839.113831,261.806976 837.583618,261.398621 
	C836.490417,261.106903 835.214539,258.633362 835.333374,257.245850 
	C835.606079,254.061722 837.957397,252.989548 841.387817,253.700867 
z"/>
<path fill="#353132" opacity="1.000000" stroke="none" 
	d="
M753.535522,256.742859 
	C753.864075,257.701141 754.013672,258.349243 754.024475,258.999695 
	C754.081055,262.394287 751.874329,264.073517 749.040527,263.575134 
	C747.638245,263.328522 745.722412,260.773499 745.663513,259.201996 
	C745.539612,255.896454 748.214661,254.923035 751.186279,255.235504 
	C751.922241,255.312897 752.592224,256.017517 753.535522,256.742859 
z"/>
<path fill="#312E2E" opacity="1.000000" stroke="none" 
	d="
M604.821655,214.413574 
	C607.951538,212.664581 610.983765,211.503464 612.002380,215.972183 
	C612.331421,217.415482 611.456543,219.730774 610.323181,220.718979 
	C609.431702,221.496246 606.305725,221.412720 605.909180,220.718948 
	C604.932617,219.010025 604.956116,216.729568 604.821655,214.413574 
z"/>
<path fill="#2F2B2C" opacity="1.000000" stroke="none" 
	d="
M561.027954,259.914795 
	C560.416992,260.104431 559.671387,260.133636 559.219421,260.512817 
	C557.657166,261.823456 556.373596,263.857086 554.619080,264.371704 
	C553.821777,264.605591 551.485596,262.077789 551.133545,260.513275 
	C550.878479,259.379730 552.430176,257.144226 553.722473,256.505737 
	C556.243225,255.260193 558.583435,255.948273 559.475891,259.122406 
	C559.536804,259.338867 560.008789,259.439697 560.658691,259.547058 
	C561.027771,259.499756 561.027954,259.914795 561.027954,259.914795 
z"/>
<path fill="#2D2A2B" opacity="1.000000" stroke="none" 
	d="
M560.975098,260.287842 
	C561.027954,259.914795 561.027771,259.499756 561.027832,259.292267 
	C561.029602,255.588455 563.609070,255.011246 566.087402,255.316269 
	C567.220947,255.455780 569.108948,257.481567 568.958435,258.361755 
	C568.649109,260.170441 567.440247,262.904358 566.151978,263.183716 
	C564.661255,263.506958 562.686768,261.599701 560.975098,260.287842 
z"/>
<path fill="#2D292A" opacity="1.000000" stroke="none" 
	d="
M673.114868,255.466400 
	C673.632568,257.405945 674.491455,259.420624 673.863220,260.711609 
	C673.271545,261.927582 670.981262,263.170807 669.679016,262.954224 
	C668.293701,262.723877 666.423706,260.925629 666.188660,259.565887 
	C665.969055,258.295837 667.308655,256.275574 668.540344,255.389313 
	C669.503235,254.696518 671.351562,255.234390 673.114868,255.466400 
z"/>
<path fill="#27479F" opacity="1.000000" stroke="none" 
	d="
M902.486755,214.806824 
	C901.698242,212.632599 900.566101,210.385696 901.123962,208.697159 
	C901.454529,207.696503 904.518311,207.062225 906.222778,207.280441 
	C907.063782,207.388092 908.514404,210.581467 908.126221,211.031921 
	C906.728455,212.654175 904.665527,213.703308 902.486755,214.806824 
z"/>
<path fill="#312E2E" opacity="1.000000" stroke="none" 
	d="
M516.947144,224.867188 
	C519.023438,224.258301 521.024170,223.984253 523.024902,223.710205 
	C523.207520,225.240662 524.081787,227.362930 523.402954,228.156311 
	C522.491821,229.221268 520.052307,230.020493 518.879822,229.515411 
	C517.792786,229.047119 517.509094,226.714020 516.947144,224.867188 
z"/>
<path fill="#353132" opacity="1.000000" stroke="none" 
	d="
M125.431625,228.796082 
	C126.843193,228.881577 127.866882,229.391983 128.890564,229.902390 
	C128.788574,230.281250 128.686584,230.660095 128.584595,231.038940 
	C127.323524,230.927933 126.062462,230.816940 124.603271,230.442032 
	C124.618019,229.859070 124.830887,229.540024 125.431625,228.796082 
z"/>
<path fill="#353132" opacity="1.000000" stroke="none" 
	d="
M131.750000,228.250000 
	C131.699997,228.533325 131.400009,228.566666 131.100006,228.600006 
	C131.233337,228.400009 131.366669,228.199997 131.750000,228.250000 
z"/>
<path fill="#353132" opacity="1.000000" stroke="none" 
	d="
M132.641632,224.992416 
	C132.801178,225.303009 132.482254,225.887573 131.891891,226.349228 
	C131.801331,225.906342 131.982239,225.586365 132.641632,224.992416 
z"/>
<path fill="#F7F8FB" opacity="1.000000" stroke="none" 
	d="
M228.769791,351.160767 
	C223.004501,351.714935 217.621399,352.089752 211.874634,352.489868 
	C211.874634,347.371399 211.874634,342.984833 211.874634,338.029358 
	C215.920731,338.029358 220.096832,337.540283 224.081161,338.203461 
	C226.683014,338.636505 229.884125,340.165863 231.242615,342.236786 
	C233.130066,345.113983 232.319656,348.642242 228.769791,351.160767 
z"/>
<path fill="#FCFDFE" opacity="1.000000" stroke="none" 
	d="
M294.707397,347.657532 
	C296.517303,354.462952 296.560516,360.845062 294.144318,367.106964 
	C291.744873,373.325378 287.829010,376.165375 281.881165,376.153961 
	C275.742401,376.142181 270.647217,373.241547 269.239960,366.985565 
	C267.933716,361.178619 267.672791,354.846344 268.440125,348.938721 
	C269.341095,342.002380 274.729645,337.730164 280.837982,337.185272 
	C286.816010,336.652039 291.398193,340.019562 294.707397,347.657532 
z"/>
<path fill="#FBFBFB" opacity="1.000000" stroke="none" 
	d="
M499.478424,337.977356 
	C505.086212,339.383331 507.929199,343.093567 509.455658,347.926758 
	C511.571869,354.627472 511.431732,361.359924 508.984955,367.953918 
	C506.844147,373.723389 502.447052,376.977783 497.139893,376.999969 
	C491.600281,377.023071 486.995300,373.688141 484.776184,367.870667 
	C482.255371,361.262238 482.244873,354.520508 484.397217,347.853058 
	C486.741425,340.591125 491.143677,337.742767 499.478424,337.977356 
z"/>
<path fill="#292526" opacity="1.000000" stroke="none" 
	d="
M766.003357,346.955994 
	C766.003723,336.033569 766.004333,335.973938 776.425232,336.078094 
	C779.035400,336.104156 781.764282,336.257812 784.221680,337.036896 
	C789.150513,338.599396 790.260803,342.625000 789.992615,347.330170 
	C789.745361,351.667725 787.277771,354.232330 783.255676,354.635712 
	C778.330566,355.129639 773.257690,355.437256 768.385193,354.792969 
	C763.847778,354.193024 766.911987,349.907043 766.003357,346.955994 
M787.018127,349.344299 
	C789.010620,341.963867 786.799072,338.924469 779.341187,338.850555 
	C775.724304,338.814697 772.106812,338.844360 768.304565,338.844360 
	C768.304565,343.720520 768.304565,348.247314 768.304565,352.994934 
	C770.575195,352.994934 772.605957,353.297272 774.508850,352.932617 
	C778.583801,352.151764 782.592773,351.026184 787.018127,349.344299 
z"/>
<path fill="#EBEEF6" opacity="1.000000" stroke="none" 
	d="
M168.014664,362.581726 
	C164.815872,362.605194 162.009933,362.605194 158.314911,362.605194 
	C160.225876,356.744659 161.924759,351.534546 164.082932,344.915833 
	C166.113266,351.112091 167.717896,355.879547 169.187363,360.688293 
	C169.339371,361.185760 168.686783,361.929047 168.014664,362.581726 
z"/>
<path fill="#F6F5F5" opacity="1.000000" stroke="none" 
	d="
M444.065704,345.320862 
	C443.840363,352.078918 442.283691,353.812012 436.295074,354.131561 
	C433.482178,354.281647 430.656586,354.214417 427.837036,354.196564 
	C427.385376,354.193695 426.935364,353.932098 426.303375,353.733032 
	C426.303375,349.120056 426.303375,344.551727 426.303375,340.023010 
	C436.639709,337.971985 441.647766,339.378265 444.065704,345.320862 
z"/>
<path fill="#060809" opacity="1.000000" stroke="none" 
	d="
M819.973755,340.016205 
	C819.974060,327.973602 819.974060,327.973450 831.392578,327.973633 
	C839.225220,327.973785 847.063965,328.156586 854.888000,327.897522 
	C858.772156,327.768951 859.122009,329.637756 859.167358,332.755676 
	C859.214050,335.969452 858.236084,337.186157 854.899902,337.105103 
	C846.920105,336.911224 838.932373,337.042480 830.498169,337.042480 
	C830.498169,342.257385 830.498169,347.145111 830.498169,352.917267 
	C837.826050,352.917267 845.252380,352.778839 852.665161,353.034393 
	C854.142822,353.085358 856.442139,354.354431 856.840515,355.563416 
	C857.731018,358.265625 856.823059,360.239410 853.143433,360.127289 
	C845.688965,359.900116 838.222717,360.059479 830.408386,360.059479 
	C830.408386,366.141205 830.408386,371.691833 830.408386,377.939056 
	C838.702515,377.939056 846.811218,377.956726 854.919800,377.929138 
	C857.640015,377.919891 860.111267,377.499878 860.173767,381.775726 
	C860.236633,386.082520 858.036011,386.155853 854.878967,386.122467 
	C844.880981,386.016663 834.875427,385.887390 824.884705,386.177673 
	C820.770569,386.297211 819.841858,384.827148 819.897461,381.008057 
	C820.093933,367.512024 819.973816,354.011444 819.973755,340.016205 
z"/>
<path fill="#060809" opacity="1.000000" stroke="none" 
	d="
M972.881714,352.897461 
	C975.187622,353.321289 977.737732,353.144867 978.685425,354.292145 
	C980.758179,356.801575 978.605042,360.010132 975.074219,360.060883 
	C967.920349,360.163788 960.765137,360.175629 953.610779,360.251068 
	C953.321655,360.254120 953.035217,360.523468 952.427856,360.830231 
	C952.427856,366.099701 952.427856,371.525360 952.427856,377.578461 
	C953.936157,377.689697 955.512390,377.897766 957.089661,377.906403 
	C963.915710,377.943787 970.743713,378.009247 977.567627,377.882568 
	C980.483826,377.828491 982.170288,378.251526 982.214722,381.863770 
	C982.261780,385.684174 980.522888,386.194397 977.354309,386.151642 
	C967.366516,386.016876 957.372986,385.970245 947.387451,386.172058 
	C943.837891,386.243744 942.847290,385.005920 942.877625,381.573273 
	C943.021973,365.258118 943.052612,348.939697 942.860046,332.625549 
	C942.814941,328.802704 944.092346,327.806030 947.742065,327.885529 
	C957.726990,328.103027 967.722961,328.106201 977.707703,327.884888 
	C981.380920,327.803497 982.126831,329.252380 982.159851,332.567474 
	C982.194336,336.034393 981.115906,337.220856 977.595764,337.127747 
	C969.322205,336.908936 961.039062,337.057709 953.086853,337.057709 
	C952.601501,337.919678 952.325195,338.191254 952.302002,338.482971 
	C951.154724,352.897491 951.157166,352.897675 965.406311,352.897675 
	C967.737244,352.897675 970.068176,352.897614 972.881714,352.897461 
z"/>
<path fill="#060809" opacity="1.000000" stroke="none" 
	d="
M680.968384,342.071167 
	C676.866150,345.146698 673.878174,344.656494 671.836609,340.986633 
	C668.230896,334.504852 660.033020,332.066284 653.974121,336.286224 
	C652.018799,337.648071 650.328674,340.905121 650.415405,343.224243 
	C650.489990,345.218903 652.883972,348.023834 654.921204,348.880890 
	C661.166321,351.508301 667.751709,353.317657 674.169617,355.546356 
	C680.729614,357.824432 683.474854,363.305206 683.700073,369.473053 
	C683.934143,375.882202 681.006409,381.667725 675.151611,384.855347 
	C665.931335,389.875336 650.841370,389.696198 643.722290,380.145355 
	C641.605530,377.305481 640.609192,373.630402 638.653992,369.366699 
	C642.906738,369.366699 645.476318,369.366699 648.090759,369.366699 
	C651.965698,378.391174 656.209534,381.014038 665.626160,379.931793 
	C670.102966,379.417236 672.972351,376.724854 673.841064,372.407715 
	C674.738525,367.947632 672.411743,365.122772 668.257568,363.684998 
	C662.925354,361.839539 657.512085,360.200043 652.272156,358.122650 
	C644.084656,354.876648 640.296265,349.229340 641.309753,342.415497 
	C642.545410,334.107391 648.436768,327.878235 656.739868,327.153778 
	C661.115601,326.772034 665.754639,327.154541 670.015076,328.225342 
	C676.694336,329.904083 679.802795,335.163727 680.968384,342.071167 
z"/>
<path fill="#EBEEF6" opacity="1.000000" stroke="none" 
	d="
M903.979797,229.221069 
	C905.893311,230.461029 907.448120,231.678528 910.312683,233.921692 
	C905.451111,233.921692 901.939514,233.921692 897.839539,233.921692 
	C900.148315,232.035583 901.884705,230.617096 903.979797,229.221069 
z"/>
<path fill="#EBEEF6" opacity="1.000000" stroke="none" 
	d="
M934.258423,243.534424 
	C934.616577,241.831772 935.132019,240.492752 935.647461,239.153732 
	C936.664917,240.080292 938.059998,240.835068 938.583618,241.986252 
	C939.024109,242.954605 938.450500,244.384232 938.325806,245.609680 
	C937.022400,245.039139 935.719055,244.468597 934.258423,243.534424 
z"/>
<path fill="#060809" opacity="1.000000" stroke="none" 
	d="
M625.731689,335.655457 
	C621.229675,343.653656 617.063110,351.419250 612.530701,358.965118 
	C608.211975,366.155243 610.553711,373.926666 610.133789,381.436432 
	C609.952515,384.679688 609.415100,386.196564 605.711121,386.192657 
	C602.035461,386.188782 600.262817,385.148499 600.943604,381.379303 
	C603.519226,367.120026 596.865479,355.689362 589.844788,344.283905 
	C586.744202,339.246826 584.125244,333.913269 581.182556,328.521759 
	C591.100769,327.126373 591.087585,327.133026 595.131348,335.145050 
	C598.481812,341.783508 601.868103,348.403900 605.579651,355.703064 
	C606.485352,353.639038 607.205261,351.752319 608.118286,349.964172 
	C610.839172,344.635468 613.610901,339.332245 616.409180,334.043579 
	C620.097656,327.072174 620.116577,327.082184 629.025940,328.625488 
	C627.942871,330.952789 626.925049,333.139801 625.731689,335.655457 
z"/>
<path fill="#060809" opacity="1.000000" stroke="none" 
	d="
M712.960144,342.173065 
	C712.870728,340.395050 712.781555,339.094818 712.641846,337.057159 
	C708.724548,337.057159 704.950195,336.841370 701.212280,337.117950 
	C697.489380,337.393372 696.759399,335.684448 696.816650,332.409576 
	C696.868835,329.422729 697.378052,327.837555 700.914978,327.893738 
	C712.387207,328.076050 723.865723,328.068878 735.338501,327.902100 
	C739.212830,327.845795 740.012573,329.583282 740.137878,333.042480 
	C740.285828,337.125000 738.027527,337.174805 735.104980,337.085999 
	C731.321655,336.971069 727.532288,337.058014 723.058167,337.058014 
	C723.058167,339.855438 723.058167,342.121552 723.058167,344.387665 
	C723.058167,356.195435 722.993469,368.003754 723.096008,379.810638 
	C723.128479,383.548553 723.423462,386.332123 717.893005,386.320862 
	C712.087524,386.309052 712.953186,383.013031 712.956177,379.570892 
	C712.966919,367.264191 712.960388,354.957520 712.960144,342.173065 
z"/>
<path fill="#070809" opacity="1.000000" stroke="none" 
	d="
M540.960510,374.977661 
	C540.960632,360.516113 541.041687,346.550781 540.901855,332.587708 
	C540.868652,329.272552 541.657166,327.878845 545.306702,327.868927 
	C548.997742,327.858917 550.196472,328.922211 550.138062,332.688019 
	C549.931946,345.984344 550.261230,359.290619 549.946228,372.582672 
	C549.838379,377.134552 551.312378,378.299561 555.606018,378.048676 
	C561.570374,377.700134 567.573486,378.078339 573.553955,377.918518 
	C576.608093,377.836884 577.150513,379.349487 577.095825,381.912445 
	C577.045044,384.283752 576.962830,386.131653 573.744202,386.093109 
	C563.937256,385.975647 554.127380,385.993500 544.319946,386.088196 
	C541.625000,386.114197 540.829834,384.903229 540.941711,382.455902 
	C541.047913,380.133423 540.961975,377.802124 540.960510,374.977661 
z"/>
<path fill="#070809" opacity="1.000000" stroke="none" 
	d="
M842.289307,319.704590 
	C836.213135,320.867126 834.975525,315.349762 831.134216,312.864197 
	C838.797668,310.843719 840.766968,312.070129 842.289307,319.704590 
z"/>
<path fill="#EBEEF6" opacity="1.000000" stroke="none" 
	d="
M120.660568,217.105865 
	C120.726685,216.548203 120.751488,216.283844 120.845032,216.256729 
	C122.590752,215.750870 124.344627,215.273193 126.096794,214.789612 
	C126.055763,215.789551 126.014732,216.789474 125.973701,217.789413 
	C124.199554,217.696152 122.425400,217.602875 120.660568,217.105865 
z"/>
<path fill="#FEFEFF" opacity="1.000000" stroke="none" 
	d="
M115.218216,204.299316 
	C115.430458,203.794128 115.880791,203.017685 116.697693,202.631622 
	C116.528282,203.357346 115.992294,203.692719 115.218216,204.299316 
z"/>
<path fill="#FBFBFB" opacity="1.000000" stroke="none" 
	d="
M786.823425,349.693054 
	C782.592773,351.026184 778.583801,352.151764 774.508850,352.932617 
	C772.605957,353.297272 770.575195,352.994934 768.304565,352.994934 
	C768.304565,348.247314 768.304565,343.720520 768.304565,338.844360 
	C772.106812,338.844360 775.724304,338.814697 779.341187,338.850555 
	C786.799072,338.924469 789.010620,341.963867 786.823425,349.693054 
z"/>
</svg>